<?xml version="1.0" encoding="UTF-8" standalone="no"?>
<svg
   xmlns:dc="http://purl.org/dc/elements/1.1/"
   xmlns:cc="http://creativecommons.org/ns#"
   xmlns:rdf="http://www.w3.org/1999/02/22-rdf-syntax-ns#"
   xmlns:svg="http://www.w3.org/2000/svg"
   xmlns="http://www.w3.org/2000/svg"
   xmlns:sodipodi="http://sodipodi.sourceforge.net/DTD/sodipodi-0.dtd"
   xmlns:inkscape="http://www.inkscape.org/namespaces/inkscape"
   version="1.1"
   viewBox="0 -200 377 1000"
   id="svg6"
   sodipodi:docname="3.svg"
   inkscape:version="0.92.2 5c3e80d, 2017-08-06">
  <metadata
     id="metadata12">
    <rdf:RDF>
      <cc:Work
         rdf:about="">
        <dc:format>image/svg+xml</dc:format>
        <dc:type
           rdf:resource="http://purl.org/dc/dcmitype/StillImage" />
        <dc:title></dc:title>
      </cc:Work>
    </rdf:RDF>
  </metadata>
  <defs
     id="defs10" />
  <sodipodi:namedview
     pagecolor="#ffffff"
     bordercolor="#666666"
     borderopacity="1"
     objecttolerance="10"
     gridtolerance="10"
     guidetolerance="10"
     inkscape:pageopacity="0"
     inkscape:pageshadow="2"
     inkscape:window-width="640"
     inkscape:window-height="480"
     id="namedview8"
     showgrid="false"
     inkscape:zoom="0.28117187"
     inkscape:cx="188.5"
     inkscape:cy="500"
     inkscape:window-x="0"
     inkscape:window-y="0"
     inkscape:window-maximized="0"
     inkscape:current-layer="svg6" />
  <g
     transform="matrix(1 0 0 -1 0 800)"
     id="g4">
    <path
       d="M 323,65 C 323,44.333333 317.33333,28.333333 306,17 294.66667,5.6666667 280,0 262,0 H 100 C 81.333333,0 66.333333,5.3333333 55,16 43.666667,26.666667 38,42.333333 38,63 v 84 h 122 c 0,0 -11.78511,-38.21489 0,-50 9.42809,-9.42809 30.57191,-9.42809 40,0 20.27039,20.27039 20.27039,65.72961 0,86 -27.34146,27.34146 -116,0 -116,0 v 97 c 0,0 88.65854,-27.34146 116,0 21.92031,21.92031 21.92031,71.07969 0,93 -9.42809,9.42809 -30.57191,9.42809 -40,0 -14.61354,-14.61354 0,-62 0,-62 H 38 v 97 c 0,17.33333 5.333333,32.33333 16,45 10.666667,12.66667 24.666667,19 42,19 h 172 c 16,0 29.16667,-6.5 39.5,-19.5 C 317.83333,439.5 323,424 323,406 V 293 c 0,-20 -6.66667,-36 -20,-48 -4,-4 -11,-8.33333 -21,-13 9.33333,-5.33333 16,-10 20,-14 14,-13.33333 21,-29 21,-47 z"
       id="path2"
       inkscape:connector-curvature="0"
       style="fill:currentColor"
       sodipodi:nodetypes="ssssssccsssccsssccssssssscccss" />
  </g>
</svg>
