<?xml version="1.0" encoding="UTF-8" standalone="no"?>
<svg
   xmlns:dc="http://purl.org/dc/elements/1.1/"
   xmlns:cc="http://creativecommons.org/ns#"
   xmlns:rdf="http://www.w3.org/1999/02/22-rdf-syntax-ns#"
   xmlns:svg="http://www.w3.org/2000/svg"
   xmlns="http://www.w3.org/2000/svg"
   xmlns:sodipodi="http://sodipodi.sourceforge.net/DTD/sodipodi-0.dtd"
   xmlns:inkscape="http://www.inkscape.org/namespaces/inkscape"
   version="1.1"
   viewBox="0 -200 377 1000"
   id="svg6"
   sodipodi:docname="8.svg"
   inkscape:version="0.92.2 5c3e80d, 2017-08-06">
  <metadata
     id="metadata12">
    <rdf:RDF>
      <cc:Work
         rdf:about="">
        <dc:format>image/svg+xml</dc:format>
        <dc:type
           rdf:resource="http://purl.org/dc/dcmitype/StillImage" />
        <dc:title></dc:title>
      </cc:Work>
    </rdf:RDF>
  </metadata>
  <defs
     id="defs10" />
  <sodipodi:namedview
     pagecolor="#ffffff"
     bordercolor="#666666"
     borderopacity="1"
     objecttolerance="10"
     gridtolerance="10"
     guidetolerance="10"
     inkscape:pageopacity="0"
     inkscape:pageshadow="2"
     inkscape:window-width="640"
     inkscape:window-height="480"
     id="namedview8"
     showgrid="false"
     inkscape:zoom="0.28117187"
     inkscape:cx="188.5"
     inkscape:cy="500"
     inkscape:window-x="0"
     inkscape:window-y="0"
     inkscape:window-maximized="0"
     inkscape:current-layer="svg6" />
  <g
     transform="matrix(1 0 0 -1 0 800)"
     id="g4">
    <path
       d="M 327,58 C 327,42.666667 322.33333,29.166667 313,17.5 303.66667,5.8333333 291,0 275,0 H 107 C 88.333333,0 73.166667,6.1666667 61.5,18.5 49.833333,30.833333 44,46 44,64 v 111 c 0,22.66667 7.333333,39.66667 22,51 4.666667,3.33333 12.333333,6.66667 23,10 -10,2 -17.333333,4.33333 -22,7 -15.333333,10 -23,27.33333 -23,52 v 111 c 0,20.66667 4.833333,36.83333 14.5,48.5 C 68.166667,466.16667 80,472 94,472 h 181 c 34.66667,0 52,-21.33333 52,-64 V 292 c 0,-18.66667 -3.66667,-32.16667 -11,-40.5 -7.33333,-8.33333 -17,-13.5 -29,-15.5 13.33333,-2 22.33333,-5.66667 27,-11 8.66667,-9.33333 13,-26 13,-50 z M 205,290 c 21.68461,21.68461 21.68461,70.31539 0,92 -9.42809,9.42809 -30.57191,9.42809 -40,0 -21.68461,-21.68461 -21.68461,-70.31539 0,-92 9.42809,-9.42809 30.57191,-9.42809 40,0 z m 0,-198 c 23.33452,23.33452 23.33452,75.66548 0,99 -9.42809,9.42809 -30.57191,9.42809 -40,0 -23.33452,-23.33452 -23.33452,-75.66548 0,-99 9.42809,-9.42809 30.57191,-9.42809 40,0 z"
       id="path2"
       inkscape:connector-curvature="0"
       style="fill:currentColor"
       sodipodi:nodetypes="ssssssscccssssssssccssssssssssss" />
  </g>
</svg>
