<?xml version="1.0" encoding="UTF-8" standalone="no"?>
<svg
   xmlns:dc="http://purl.org/dc/elements/1.1/"
   xmlns:cc="http://creativecommons.org/ns#"
   xmlns:rdf="http://www.w3.org/1999/02/22-rdf-syntax-ns#"
   xmlns:svg="http://www.w3.org/2000/svg"
   xmlns="http://www.w3.org/2000/svg"
   xmlns:sodipodi="http://sodipodi.sourceforge.net/DTD/sodipodi-0.dtd"
   xmlns:inkscape="http://www.inkscape.org/namespaces/inkscape"
   version="1.1"
   viewBox="0 -200 981 1000"
   id="svg6"
   sodipodi:docname="a.svg"
   inkscape:version="0.92.2 5c3e80d, 2017-08-06">
  <metadata
     id="metadata12">
    <rdf:RDF>
      <cc:Work
         rdf:about="">
        <dc:format>image/svg+xml</dc:format>
        <dc:type
           rdf:resource="http://purl.org/dc/dcmitype/StillImage" />
        <dc:title></dc:title>
      </cc:Work>
    </rdf:RDF>
  </metadata>
  <defs
     id="defs10" />
  <sodipodi:namedview
     pagecolor="#ffffff"
     bordercolor="#666666"
     borderopacity="1"
     objecttolerance="10"
     gridtolerance="10"
     guidetolerance="10"
     inkscape:pageopacity="0"
     inkscape:pageshadow="2"
     inkscape:window-width="1108"
     inkscape:window-height="723"
     id="namedview8"
     showgrid="false"
     inkscape:zoom="0.5051875"
     inkscape:cx="428.26049"
     inkscape:cy="500"
     inkscape:window-x="0"
     inkscape:window-y="0"
     inkscape:window-maximized="0"
     inkscape:current-layer="svg6" />
  <g
     transform="matrix(1 0 0 -1 0 800)"
     id="g4">
    <path
       d="M 979,78 C 979,50.666667 975.66667,31.666667 969,21 960.33333,7 943.66667,0 919,0 H 758 c -22.66667,0 -39,5.6666667 -49,17 -10,11.333333 -15,33 -15,65 v 204 c 0,20 4.5,35.5 13.5,46.5 9,11 24.16667,16.5 45.5,16.5 0,0 77.95837,-24.04163 102,0 5.65685,5.65685 6.67479,19.5901 0,24 -46.66905,30.83334 -151.33095,46.66905 -198,0 C 569.08306,285.08306 657,0 657,0 H 532 c 0,0 87.91694,285.08306 0,373 -8.95669,8.95669 -29.04331,8.95669 -38,0 -20.27039,-20.27039 0,-86 0,-86 0,-20 -6,-34.33333 -18,-43 -4,-2.66667 -10.33333,-5.33333 -19,-8 8,-2.66667 14,-5.33333 18,-8 12.66667,-10 19,-26 19,-48 V 92 C 494,57.333333 489.83333,33.333333 481.5,20 473.16667,6.6666667 456,0 430,0 H 260 c -22.66667,0 -38,7.6666667 -46,23 -8,15.333333 -12,38.333333 -12,69 0,0 66.23234,214.76766 0,281 -8.95669,8.95669 -29.04331,8.95669 -38,0 C 76.083057,285.08306 164,0 164,0 H 42 v 383 c 0,29.33333 6.833333,51.5 20.5,66.5 13.666667,15 31.833333,22.5 54.5,22.5 h 419 c 29.33333,0 50.33333,-8 63,-24 4,-5.33333 7.66667,-13.33333 11,-24 4,10.66667 8,18.66667 12,24 12.66667,16 31.66667,24 57,24 h 225 c 26,0 45,-7.33333 57,-22 12,-14.66667 18,-34.33333 18,-59 z M 372,280 c 21.92031,21.92031 21.92031,71.07969 0,93 -11.07801,11.07801 -35.92199,11.07801 -47,0 -21.92031,-21.92031 -21.92031,-71.07969 0,-93 11.07801,-11.07801 35.92199,-11.07801 47,0 z M 855,97 c 39.12658,39.12658 39.12658,126.87342 0,166 -8.95669,8.95669 -29.04331,8.95669 -38,0 -39.12658,-39.12658 -39.12658,-126.87342 0,-166 8.95669,-8.956686 29.04331,-8.956686 38,0 z m -483,0 c 22.86312,22.86312 22.86312,74.13688 0,97 -11.07801,11.07801 -35.92199,11.07801 -47,0 -22.86312,-22.86312 -22.86312,-74.13688 0,-97 11.07801,-11.078006 35.92199,-11.078006 47,0 z"
       id="path2"
       inkscape:connector-curvature="0"
       style="fill:currentColor"
       sodipodi:nodetypes="scssssssssssccssscccsssssssssccsssscccssssssssssssssssssss" />
  </g>
</svg>
