<?xml version="1.0" encoding="UTF-8" standalone="no"?>
<svg
   xmlns:dc="http://purl.org/dc/elements/1.1/"
   xmlns:cc="http://creativecommons.org/ns#"
   xmlns:rdf="http://www.w3.org/1999/02/22-rdf-syntax-ns#"
   xmlns:svg="http://www.w3.org/2000/svg"
   xmlns="http://www.w3.org/2000/svg"
   xmlns:sodipodi="http://sodipodi.sourceforge.net/DTD/sodipodi-0.dtd"
   xmlns:inkscape="http://www.inkscape.org/namespaces/inkscape"
   version="1.1"
   viewBox="0 -200 1153 1000"
   id="svg6"
   sodipodi:docname="aa.svg"
   inkscape:version="0.92.2 5c3e80d, 2017-08-06">
  <metadata
     id="metadata12">
    <rdf:RDF>
      <cc:Work
         rdf:about="">
        <dc:format>image/svg+xml</dc:format>
        <dc:type
           rdf:resource="http://purl.org/dc/dcmitype/StillImage" />
        <dc:title></dc:title>
      </cc:Work>
    </rdf:RDF>
  </metadata>
  <defs
     id="defs10" />
  <sodipodi:namedview
     pagecolor="#ffffff"
     bordercolor="#666666"
     borderopacity="1"
     objecttolerance="10"
     gridtolerance="10"
     guidetolerance="10"
     inkscape:pageopacity="0"
     inkscape:pageshadow="2"
     inkscape:window-width="1192"
     inkscape:window-height="722"
     id="namedview8"
     showgrid="false"
     inkscape:zoom="0.50426562"
     inkscape:cx="514.26049"
     inkscape:cy="182.70691"
     inkscape:window-x="0"
     inkscape:window-y="0"
     inkscape:window-maximized="0"
     inkscape:current-layer="svg6" />
  <g
     transform="matrix(1 0 0 -1 0 800)"
     id="g4">
    <path
       d="m 1149,-97 c 0,-22.66667 -6.6667,-41.33333 -20,-56 -13.3333,-14.66667 -32.3333,-22 -57,-22 H 765 v 100 c 0,0 198.71741,-61.28259 260,0 78.4889,78.4888527 78.4889,254.51115 0,333 -10.8423,10.8423 -35.1577,10.8423 -46,0 C 940.10913,219.10913 979,93 979,93 979,63.666667 975.33333,42 968,28 958,9.3333333 941,0 917,0 H 758 c -42.66667,0 -64,31 -64,93 v 193 c 0,17.33333 5.66667,32.16667 17,44.5 11.33333,12.33333 28.33333,18.5 51,18.5 0,0 74.82232,-23.9897 96,0 5.33562,6.0441 3.0441,18.66438 -3,24 -49.47876,43.67897 -151.33095,46.66905 -198,0 C 569.08306,285.08306 657,0 657,0 H 532 c 0,0 87.91694,285.08306 0,373 -8.95669,8.95669 -29.04331,8.95669 -38,0 -20.27039,-20.27039 0,-86 0,-86 0,-20 -6,-34.33333 -18,-43 -4,-2.66667 -10.33333,-5.33333 -19,-8 8,-2.66667 14,-5.33333 18,-8 12.66667,-10 19,-26 19,-48 V 92 C 494,57.333333 489.83333,33.333333 481.5,20 473.16667,6.6666667 456,0 430,0 H 260 c -22.66667,0 -38,7.6666667 -46,23 -8,15.333333 -12,38.333333 -12,69 0,0 66.23234,214.76766 0,281 -8.95669,8.95669 -29.04331,8.95669 -38,0 C 76.083057,285.08306 164,0 164,0 H 42 v 383 c 0,28.66667 7.5,50.66667 22.5,66 15,15.33333 33.833333,23 56.5,23 h 415 c 29.33333,0 50.33333,-8 63,-24 4,-5.33333 7.66667,-13.33333 11,-24 4,10.66667 8,18.66667 12,24 12.66667,16 31.66667,24 57,24 h 223 c 26,0 45.33333,-8 58,-24 12.66667,-16 19,-36.33333 19,-61 v -38 h 100 c 22.6667,0 40,-7 52,-21 12,-14 18,-32.66667 18,-56 z M 372,280 c 21.92031,21.92031 21.92031,71.07969 0,93 -11.07801,11.07801 -35.92199,11.07801 -47,0 -21.92031,-21.92031 -21.92031,-71.07969 0,-93 11.07801,-11.07801 35.92199,-11.07801 47,0 z M 855,97 c 39.12658,39.12658 39.12658,126.87342 0,166 -8.95669,8.95669 -29.04331,8.95669 -38,0 -39.12658,-39.12658 -39.12658,-126.87342 0,-166 8.95669,-8.956686 29.04331,-8.956686 38,0 z m -483,0 c 22.86312,22.86312 22.86312,74.13688 0,97 -11.07801,11.07801 -35.92199,11.07801 -47,0 -22.86312,-22.86312 -22.86312,-74.13688 0,-97 11.07801,-11.078006 35.92199,-11.078006 47,0 z"
       id="path2"
       inkscape:connector-curvature="0"
       style="fill:currentColor"
       sodipodi:nodetypes="sssccsssscsssssssssccssscccsssssssssccsssscccsssscsssssssssssssssssss" />
  </g>
</svg>
