<?xml version="1.0" encoding="UTF-8" standalone="no"?>
<svg
   xmlns:dc="http://purl.org/dc/elements/1.1/"
   xmlns:cc="http://creativecommons.org/ns#"
   xmlns:rdf="http://www.w3.org/1999/02/22-rdf-syntax-ns#"
   xmlns:svg="http://www.w3.org/2000/svg"
   xmlns="http://www.w3.org/2000/svg"
   xmlns:sodipodi="http://sodipodi.sourceforge.net/DTD/sodipodi-0.dtd"
   xmlns:inkscape="http://www.inkscape.org/namespaces/inkscape"
   version="1.1"
   viewBox="0 -200 249 1000"
   id="svg6"
   sodipodi:docname="am.svg"
   inkscape:version="0.92.2 5c3e80d, 2017-08-06">
  <metadata
     id="metadata12">
    <rdf:RDF>
      <cc:Work
         rdf:about="">
        <dc:format>image/svg+xml</dc:format>
        <dc:type
           rdf:resource="http://purl.org/dc/dcmitype/StillImage" />
        <dc:title></dc:title>
      </cc:Work>
    </rdf:RDF>
  </metadata>
  <defs
     id="defs10" />
  <sodipodi:namedview
     pagecolor="#ffffff"
     bordercolor="#666666"
     borderopacity="1"
     objecttolerance="10"
     gridtolerance="10"
     guidetolerance="10"
     inkscape:pageopacity="0"
     inkscape:pageshadow="2"
     inkscape:window-width="640"
     inkscape:window-height="480"
     id="namedview8"
     showgrid="false"
     inkscape:zoom="0.28117187"
     inkscape:cx="62.260489"
     inkscape:cy="500"
     inkscape:window-x="0"
     inkscape:window-y="0"
     inkscape:window-maximized="0"
     inkscape:current-layer="svg6" />
  <g
     transform="matrix(1 0 0 -1 0 800)"
     id="g4">
    <path
       d="m 244,306 c 0,-17.33333 -4.5,-31.16667 -13.5,-41.5 C 221.5,254.16667 205.33333,249 182,249 H 92 c -15.333333,0 -28.333333,5.66667 -39,17 -10.666667,11.33333 -16,24.66667 -16,40 v 75 c 0,14 4.666667,26.33333 14,37 9.333333,10.66667 21,16 35,16 h 98 c 24.66667,0 41.33333,-5.33333 50,-16 6.66667,-8 10,-21.33333 10,-40 z M 244,58 C 244,42 238.66667,28.666667 228,18 217.33333,7.3333333 204,2 188,2 H 92 C 76.666667,2 63.666667,7.3333333 53,18 42.333333,28.666667 37,42 37,58 v 76 c 0,14 4.666667,26.33333 14,37 9.333333,10.66667 21,16 35,16 h 104 c 17.33333,0 30.66667,-5.33333 40,-16 9.33333,-10.66667 14,-24 14,-40 z m -85,257 c 12.49222,12.49222 12.49222,40.50778 0,53 -8.72098,8.72098 -28.27902,8.72098 -37,0 -12.49222,-12.49222 -12.49222,-40.50778 0,-53 8.72098,-8.72098 28.27902,-8.72098 37,0 z m 0,-247 c 12.49222,12.49222 12.49222,40.50778 0,53 -8.72098,8.72098 -28.27902,8.72098 -37,0 -12.49222,-12.49222 -12.49222,-40.50778 0,-53 8.72098,-8.720984 28.27902,-8.720984 37,0 z"
       id="path2"
       inkscape:connector-curvature="0"
       style="fill:currentColor"
       sodipodi:nodetypes="sssssssssscsssssssssssssssssssssssss" />
  </g>
</svg>
