<?xml version="1.0" encoding="UTF-8" standalone="no"?>
<svg
   xmlns:dc="http://purl.org/dc/elements/1.1/"
   xmlns:cc="http://creativecommons.org/ns#"
   xmlns:rdf="http://www.w3.org/1999/02/22-rdf-syntax-ns#"
   xmlns:svg="http://www.w3.org/2000/svg"
   xmlns="http://www.w3.org/2000/svg"
   xmlns:sodipodi="http://sodipodi.sourceforge.net/DTD/sodipodi-0.dtd"
   xmlns:inkscape="http://www.inkscape.org/namespaces/inkscape"
   version="1.1"
   viewBox="0 -200 811 1000"
   id="svg6"
   sodipodi:docname="ba.svg"
   inkscape:version="0.92.2 5c3e80d, 2017-08-06">
  <metadata
     id="metadata12">
    <rdf:RDF>
      <cc:Work
         rdf:about="">
        <dc:format>image/svg+xml</dc:format>
        <dc:type
           rdf:resource="http://purl.org/dc/dcmitype/StillImage" />
        <dc:title></dc:title>
      </cc:Work>
    </rdf:RDF>
  </metadata>
  <defs
     id="defs10" />
  <sodipodi:namedview
     pagecolor="#ffffff"
     bordercolor="#666666"
     borderopacity="1"
     objecttolerance="10"
     gridtolerance="10"
     guidetolerance="10"
     inkscape:pageopacity="0"
     inkscape:pageshadow="2"
     inkscape:window-width="640"
     inkscape:window-height="480"
     id="namedview8"
     showgrid="false"
     inkscape:zoom="0.28117187"
     inkscape:cx="343.26049"
     inkscape:cy="500"
     inkscape:window-x="0"
     inkscape:window-y="0"
     inkscape:window-maximized="0"
     inkscape:current-layer="svg6" />
  <g
     transform="matrix(1 0 0 -1 0 800)"
     id="g4">
    <path
       d="M 808,0 H 508 v 97 c 0,0 13.75736,-4.242641 18,0 65.05382,65.05382 65.05382,210.94618 0,276 -9.19239,9.19239 -29.80761,9.19239 -39,0 C 399.08306,285.08306 487,0 487,0 H 361 c 0,0 87.91694,285.08306 0,373 -47.37615,47.37615 -153.62385,47.37615 -201,0 -5.65685,-5.65685 -5.65685,-18.34315 0,-24 26.39865,-26.39865 112,0 112,0 15.33333,0 27.66667,-4.66667 37,-14 9.33333,-9.33333 14,-21 14,-35 V 62 C 323,20.666667 303.33333,0 264,0 H 97 C 77.666667,0 62.666667,6 52,18 41.333333,30 36,46.666667 36,68 v 339 c 0,43.33333 20.333333,65 61,65 h 292 c 18.66667,0 32.66667,-5 42,-15 5.33333,-6 9,-17 11,-33 2,15.33333 5.33333,26 10,32 8.66667,10.66667 21.66667,16 39,16 h 104 c 20.66667,0 35,-5 43,-15 8,-10 12,-26 12,-48 0,0 -73.53911,-238.46089 0,-312 8.95669,-8.956686 29.04331,-8.956686 38,0 88.38835,88.38835 0,375 0,375 H 808 Z M 198,97 c 38.65517,38.65517 38.65517,125.34483 0,164 -8.95669,8.95669 -29.04331,8.95669 -38,0 -38.65517,-38.65517 -38.65517,-125.34483 0,-164 8.95669,-8.956686 29.04331,-8.956686 38,0 z"
       id="path2"
       inkscape:connector-curvature="0"
       style="fill:currentColor"
       sodipodi:nodetypes="cccsssccsssssssssssssscccsssssscccsssss" />
  </g>
</svg>
