<?xml version="1.0" encoding="UTF-8" standalone="no"?>
<svg
   xmlns:dc="http://purl.org/dc/elements/1.1/"
   xmlns:cc="http://creativecommons.org/ns#"
   xmlns:rdf="http://www.w3.org/1999/02/22-rdf-syntax-ns#"
   xmlns:svg="http://www.w3.org/2000/svg"
   xmlns="http://www.w3.org/2000/svg"
   xmlns:sodipodi="http://sodipodi.sourceforge.net/DTD/sodipodi-0.dtd"
   xmlns:inkscape="http://www.inkscape.org/namespaces/inkscape"
   version="1.1"
   viewBox="0 -200 632 1000"
   id="svg6"
   sodipodi:docname="cha.svg"
   inkscape:version="0.92.2 5c3e80d, 2017-08-06">
  <metadata
     id="metadata12">
    <rdf:RDF>
      <cc:Work
         rdf:about="">
        <dc:format>image/svg+xml</dc:format>
        <dc:type
           rdf:resource="http://purl.org/dc/dcmitype/StillImage" />
        <dc:title></dc:title>
      </cc:Work>
    </rdf:RDF>
  </metadata>
  <defs
     id="defs10" />
  <sodipodi:namedview
     pagecolor="#ffffff"
     bordercolor="#666666"
     borderopacity="1"
     objecttolerance="10"
     gridtolerance="10"
     guidetolerance="10"
     inkscape:pageopacity="0"
     inkscape:pageshadow="2"
     inkscape:window-width="1351"
     inkscape:window-height="752"
     id="namedview8"
     showgrid="false"
     inkscape:zoom="0.53192187"
     inkscape:cx="253.76049"
     inkscape:cy="500"
     inkscape:window-x="0"
     inkscape:window-y="0"
     inkscape:window-maximized="0"
     inkscape:current-layer="svg6" />
  <g
     transform="matrix(1 0 0 -1 0 800)"
     id="g4">
    <path
       d="M 629,0 H 38 v 97 h 251 c 16,0 31.5199,8.87998 31.5199,22.87998 0,0 16.75743,76.84269 -7.5199,101.12002 -8.95669,8.95669 -29.04331,8.95669 -38,0 -22.39171,-22.39171 0,-95 0,-95 H 151 v 103 c 0,14 4.66667,26.33333 14,37 9.33333,10.66667 20.66667,16 34,16 h 185 c 16.66667,0 29.83333,-4.33333 39.5,-13 9.66667,-8.66667 14.5,-23.33333 14.5,-44 V 117 c 0,-8 -2.66667,-14 -8,-18 -0.66667,-0.666667 -2.33333,-1.333333 -5,-2 0,0 47.98399,-0.05643 80,0 124.99981,0.22031 0,375 0,375 h 124 z"
       id="path2"
       inkscape:connector-curvature="0"
       style="fill:currentColor"
       sodipodi:nodetypes="cccssssccsssssssccsccc" />
  </g>
</svg>
