<?xml version="1.0" encoding="UTF-8" standalone="no"?>
<svg
   xmlns:dc="http://purl.org/dc/elements/1.1/"
   xmlns:cc="http://creativecommons.org/ns#"
   xmlns:rdf="http://www.w3.org/1999/02/22-rdf-syntax-ns#"
   xmlns:svg="http://www.w3.org/2000/svg"
   xmlns="http://www.w3.org/2000/svg"
   xmlns:sodipodi="http://sodipodi.sourceforge.net/DTD/sodipodi-0.dtd"
   xmlns:inkscape="http://www.inkscape.org/namespaces/inkscape"
   version="1.1"
   viewBox="0 -200 958 1000"
   id="svg6"
   sodipodi:docname="chhha.svg"
   inkscape:version="0.92.2 5c3e80d, 2017-08-06">
  <metadata
     id="metadata12">
    <rdf:RDF>
      <cc:Work
         rdf:about="">
        <dc:format>image/svg+xml</dc:format>
        <dc:type
           rdf:resource="http://purl.org/dc/dcmitype/StillImage" />
        <dc:title></dc:title>
      </cc:Work>
    </rdf:RDF>
  </metadata>
  <defs
     id="defs10" />
  <sodipodi:namedview
     pagecolor="#ffffff"
     bordercolor="#666666"
     borderopacity="1"
     objecttolerance="10"
     gridtolerance="10"
     guidetolerance="10"
     inkscape:pageopacity="0"
     inkscape:pageshadow="2"
     inkscape:window-width="1090"
     inkscape:window-height="753"
     id="namedview8"
     showgrid="false"
     inkscape:zoom="0.53284375"
     inkscape:cx="416.76049"
     inkscape:cy="500"
     inkscape:window-x="0"
     inkscape:window-y="0"
     inkscape:window-maximized="0"
     inkscape:current-layer="svg6" />
  <g
     transform="matrix(1 0 0 -1 0 800)"
     id="g4">
    <path
       d="M 957,64 C 957,45.333333 953,30.666667 945,20 935,6.6666667 919,0 897,0 H 724 C 704.66667,0 690.66667,5.8333333 682,17.5 673.33333,29.166667 669,43.666667 669,61 v 227 c 0,22 4,37.66667 12,47 8,9.33333 19.33333,14 34,14 0,0 90.18713,-27.81287 118,0 5.65685,5.65685 5.65685,18.34315 0,24 -48.08326,48.08326 -155.91674,48.08326 -204,0 C 541.08306,285.08306 629,0 629,0 H 38 v 97 h 251 c 16,0 24,7 24,21 0,0 24.27733,78.72267 0,103 -8.95669,8.95669 -29.04331,8.95669 -38,0 -22.39171,-22.39171 0,-95 0,-95 H 151 v 103 c 0,14 4.66667,26.33333 14,37 9.33333,10.66667 20.66667,16 34,16 h 185 c 16.66667,0 29.83333,-4.33333 39.5,-13 9.66667,-8.66667 14.5,-23.33333 14.5,-44 V 117 c 0,-8 -2.66667,-14 -8,-18 -0.66667,-0.666667 -2.33333,-1.333333 -5,-2 h 80 v 309 c 0,17.33333 4.83333,32.66667 14.5,46 9.66667,13.33333 22.83333,20 39.5,20 h 335 c 23.33333,0 39.66667,-6.16667 49,-18.5 9.33333,-12.33333 14,-29.5 14,-51.5 z M 833,97 c 39.12658,39.12658 39.12658,126.87342 0,166 -8.95669,8.95669 -29.04331,8.95669 -38,0 -39.12658,-39.12658 -39.12658,-126.87342 0,-166 8.95669,-8.956686 29.04331,-8.956686 38,0 z"
       id="path2"
       inkscape:connector-curvature="0"
       style="fill:currentColor"
       sodipodi:nodetypes="sssssssssssscccssssccssssssscccssssssssssss" />
  </g>
</svg>
