<?xml version="1.0" encoding="UTF-8" standalone="no"?>
<svg
   xmlns:dc="http://purl.org/dc/elements/1.1/"
   xmlns:cc="http://creativecommons.org/ns#"
   xmlns:rdf="http://www.w3.org/1999/02/22-rdf-syntax-ns#"
   xmlns:svg="http://www.w3.org/2000/svg"
   xmlns="http://www.w3.org/2000/svg"
   xmlns:sodipodi="http://sodipodi.sourceforge.net/DTD/sodipodi-0.dtd"
   xmlns:inkscape="http://www.inkscape.org/namespaces/inkscape"
   version="1.1"
   viewBox="0 -200 653 1000"
   id="svg6"
   sodipodi:docname="da.svg"
   inkscape:version="0.92.2 5c3e80d, 2017-08-06">
  <metadata
     id="metadata12">
    <rdf:RDF>
      <cc:Work
         rdf:about="">
        <dc:format>image/svg+xml</dc:format>
        <dc:type
           rdf:resource="http://purl.org/dc/dcmitype/StillImage" />
        <dc:title></dc:title>
      </cc:Work>
    </rdf:RDF>
  </metadata>
  <defs
     id="defs10" />
  <sodipodi:namedview
     pagecolor="#ffffff"
     bordercolor="#666666"
     borderopacity="1"
     objecttolerance="10"
     gridtolerance="10"
     guidetolerance="10"
     inkscape:pageopacity="0"
     inkscape:pageshadow="2"
     inkscape:window-width="640"
     inkscape:window-height="480"
     id="namedview8"
     showgrid="false"
     inkscape:zoom="0.28117187"
     inkscape:cx="264.26049"
     inkscape:cy="500"
     inkscape:window-x="0"
     inkscape:window-y="0"
     inkscape:window-maximized="0"
     inkscape:current-layer="svg6" />
  <g
     transform="matrix(1 0 0 -1 0 800)"
     id="g4">
    <path
       d="M 650,66 C 650,46.666667 645.16667,30.833333 635.5,18.5 625.83333,6.1666667 610.66667,0 590,0 h -96 c -18.66667,0 -33,7.6666667 -43,23 -2.66667,4.666667 -5.66667,12.333333 -9,23 C 440.66667,35.333333 438.66667,27.666667 436,23 427.33333,7.6666667 411.66667,0 389,0 H 252 C 232.66667,0 218.83333,5.6666667 210.5,17 202.16667,28.333333 198,43.666667 198,63 c 0,0 73.77481,239.22519 0,313 -8.95669,8.95669 -29.04331,8.95669 -38,0 C 71.37595,287.37595 160,0 160,0 H 37 v 409 c 0,20 6.166667,35.5 18.5,46.5 12.333333,11 27.5,16.5 45.5,16.5 h 160 c 22.66667,0 39,-6.33333 49,-19 8,-10 12,-25.33333 12,-46 0,0 -72.832,-236.168 0,-309 8.72098,-8.720984 28.27902,-8.720984 37,0 88.15265,88.15265 0,374 0,374 h 127 c 0,0 -88.15265,-285.84735 0,-374 8.95669,-8.956686 29.04331,-8.956686 38,0 88.15265,88.15265 0,374 0,374 h 126 z"
       id="path2"
       inkscape:connector-curvature="0"
       style="fill:currentColor"
       sodipodi:nodetypes="sssscccssssssccsssscsssccssccs" />
  </g>
</svg>
