<?xml version="1.0" encoding="UTF-8" standalone="no"?>
<svg
   xmlns:dc="http://purl.org/dc/elements/1.1/"
   xmlns:cc="http://creativecommons.org/ns#"
   xmlns:rdf="http://www.w3.org/1999/02/22-rdf-syntax-ns#"
   xmlns:svg="http://www.w3.org/2000/svg"
   xmlns="http://www.w3.org/2000/svg"
   xmlns:sodipodi="http://sodipodi.sourceforge.net/DTD/sodipodi-0.dtd"
   xmlns:inkscape="http://www.inkscape.org/namespaces/inkscape"
   version="1.1"
   viewBox="0 -200 381 1000"
   id="svg6"
   sodipodi:docname="daa.svg"
   inkscape:version="0.92.2 5c3e80d, 2017-08-06">
  <metadata
     id="metadata12">
    <rdf:RDF>
      <cc:Work
         rdf:about="">
        <dc:format>image/svg+xml</dc:format>
        <dc:type
           rdf:resource="http://purl.org/dc/dcmitype/StillImage" />
        <dc:title></dc:title>
      </cc:Work>
    </rdf:RDF>
  </metadata>
  <defs
     id="defs10" />
  <sodipodi:namedview
     pagecolor="#ffffff"
     bordercolor="#666666"
     borderopacity="1"
     objecttolerance="10"
     gridtolerance="10"
     guidetolerance="10"
     inkscape:pageopacity="0"
     inkscape:pageshadow="2"
     inkscape:window-width="640"
     inkscape:window-height="480"
     id="namedview8"
     showgrid="false"
     inkscape:zoom="0.28117187"
     inkscape:cx="128.26049"
     inkscape:cy="500"
     inkscape:window-x="0"
     inkscape:window-y="0"
     inkscape:window-maximized="0"
     inkscape:current-layer="svg6" />
  <g
     transform="matrix(1 0 0 -1 0 800)"
     id="g4">
    <path
       d="M 378,62 C 378,40.666667 373.66667,24.666667 365,14 356.33333,3.3333333 341.33333,-2 320,-2 H 197 v 97 c 0,0 43.56497,-13.435029 57,0 19.32759,19.32759 19.32759,62.67241 0,82 -13.43503,13.43503 -57,0 -57,0 v 109 c 0,0 43.56497,-13.43503 57,0 20.5061,20.5061 20.5061,66.4939 0,87 -22.15601,22.15601 -71.84399,22.15601 -94,0 -88.388348,-88.38835 0,-375 0,-375 H 37 v 410 c 0,17.33333 2.666667,30.66667 8,40 8,14.66667 22.666667,22 44,22 h 232 c 38,0 57,-20.66667 57,-62 V 285 c 0,-19.33333 -6.33333,-33.66667 -19,-43 -4,-2.66667 -10.33333,-5.33333 -19,-8 8.66667,-2.66667 15,-5.33333 19,-8 12.66667,-10 19,-26 19,-48 z"
       id="path2"
       inkscape:connector-curvature="0"
       style="fill:currentColor"
       sodipodi:nodetypes="sssccssccsssccscsssscccss" />
  </g>
</svg>
