<?xml version="1.0" encoding="UTF-8" standalone="no"?>
<svg
   xmlns:dc="http://purl.org/dc/elements/1.1/"
   xmlns:cc="http://creativecommons.org/ns#"
   xmlns:rdf="http://www.w3.org/1999/02/22-rdf-syntax-ns#"
   xmlns:svg="http://www.w3.org/2000/svg"
   xmlns="http://www.w3.org/2000/svg"
   xmlns:sodipodi="http://sodipodi.sourceforge.net/DTD/sodipodi-0.dtd"
   xmlns:inkscape="http://www.inkscape.org/namespaces/inkscape"
   version="1.1"
   viewBox="0 -200 813 1000"
   id="svg6"
   sodipodi:docname="ddha.svg"
   inkscape:version="0.92.2 5c3e80d, 2017-08-06">
  <metadata
     id="metadata12">
    <rdf:RDF>
      <cc:Work
         rdf:about="">
        <dc:format>image/svg+xml</dc:format>
        <dc:type
           rdf:resource="http://purl.org/dc/dcmitype/StillImage" />
        <dc:title></dc:title>
      </cc:Work>
    </rdf:RDF>
  </metadata>
  <defs
     id="defs10" />
  <sodipodi:namedview
     pagecolor="#ffffff"
     bordercolor="#666666"
     borderopacity="1"
     objecttolerance="10"
     gridtolerance="10"
     guidetolerance="10"
     inkscape:pageopacity="0"
     inkscape:pageshadow="2"
     inkscape:window-width="640"
     inkscape:window-height="480"
     id="namedview8"
     showgrid="false"
     inkscape:zoom="0.28117187"
     inkscape:cx="344.26049"
     inkscape:cy="500"
     inkscape:window-x="0"
     inkscape:window-y="0"
     inkscape:window-maximized="0"
     inkscape:current-layer="svg6" />
  <g
     transform="matrix(1 0 0 -1 0 800)"
     id="g4">
    <path
       d="M 811,63 C 811,42.333333 804.33333,26.666667 791,16 777.66667,5.3333333 758.66667,0 734,0 H 494 c -18.66667,0 -33,7.6666667 -43,23 -2.66667,4.666667 -5.66667,12.333333 -9,23 C 440.66667,35.333333 438.66667,27.666667 436,23 427.33333,7.6666667 411.66667,0 389,0 H 252 C 232.66667,0 218.83333,5.6666667 210.5,17 202.16667,28.333333 198,43.666667 198,63 c 0,0 73.0677,236.9323 0,310 -8.95669,8.95669 -29.04331,8.95669 -38,0 C 72.083057,285.08306 160,0 160,0 H 37 v 409 c 0,20 6.166667,35.5 18.5,46.5 12.333333,11 27.5,16.5 45.5,16.5 h 160 c 22.66667,0 39,-6.33333 49,-19 8,-10 12,-25.33333 12,-46 0,0 -73.0677,-236.9323 0,-310 8.72098,-8.720984 28.27902,-8.720984 37,0 88.38835,88.38835 0,375 0,375 h 127 c 0,0 -88.38835,-286.61165 0,-375 47.37615,-47.376154 153.62385,-47.376154 201,0 6.12826,6.12826 6.12826,19.87174 0,26 -26.39865,26.39865 -112,0 -112,0 -14.66667,0 -26.66667,5.66667 -36,17 -9.33333,11.33333 -14,25 -14,41 v 225 c 0,18 6.16667,33.5 18.5,46.5 12.33333,13 27.5,19.5 45.5,19.5 h 153 c 20,0 36.5,-6.16667 49.5,-18.5 13,-12.33333 19.5,-27.83333 19.5,-46.5 z M 687,212 c 37.94806,37.94806 37.94806,123.05194 0,161 -8.95669,8.95669 -29.04331,8.95669 -38,0 -37.94806,-37.94806 -37.94806,-123.05194 0,-161 8.95669,-8.95669 29.04331,-8.95669 38,0 z"
       id="path2"
       inkscape:connector-curvature="0"
       style="fill:currentColor"
       sodipodi:nodetypes="sssscccssssssccsssscsssccssssssssssssssssss" />
  </g>
</svg>
