<?xml version="1.0" encoding="UTF-8" standalone="no"?>
<svg
   xmlns:dc="http://purl.org/dc/elements/1.1/"
   xmlns:cc="http://creativecommons.org/ns#"
   xmlns:rdf="http://www.w3.org/1999/02/22-rdf-syntax-ns#"
   xmlns:svg="http://www.w3.org/2000/svg"
   xmlns="http://www.w3.org/2000/svg"
   xmlns:sodipodi="http://sodipodi.sourceforge.net/DTD/sodipodi-0.dtd"
   xmlns:inkscape="http://www.inkscape.org/namespaces/inkscape"
   version="1.1"
   viewBox="0 -200 492 1000"
   id="svg6"
   sodipodi:docname="ddhhaa.svg"
   inkscape:version="0.92.2 5c3e80d, 2017-08-06">
  <metadata
     id="metadata12">
    <rdf:RDF>
      <cc:Work
         rdf:about="">
        <dc:format>image/svg+xml</dc:format>
        <dc:type
           rdf:resource="http://purl.org/dc/dcmitype/StillImage" />
        <dc:title></dc:title>
      </cc:Work>
    </rdf:RDF>
  </metadata>
  <defs
     id="defs10" />
  <sodipodi:namedview
     pagecolor="#ffffff"
     bordercolor="#666666"
     borderopacity="1"
     objecttolerance="10"
     gridtolerance="10"
     guidetolerance="10"
     inkscape:pageopacity="0"
     inkscape:pageshadow="2"
     inkscape:window-width="640"
     inkscape:window-height="480"
     id="namedview8"
     showgrid="false"
     inkscape:zoom="0.28117187"
     inkscape:cx="183.76049"
     inkscape:cy="500"
     inkscape:window-x="0"
     inkscape:window-y="0"
     inkscape:window-maximized="0"
     inkscape:current-layer="svg6" />
  <g
     transform="matrix(1 0 0 -1 0 800)"
     id="g4">
    <path
       d="M 490,63 C 490,43.666667 485.33333,28.333333 476,17 466.66667,5.6666667 451,0 429,0 h -95 c -18.66667,0 -33,7.6666667 -43,23 -2.66667,4.666667 -5.66667,12.333333 -9,23 C 280,35.333333 277.66667,27.666667 275,23 265.66667,7.6666667 250,0 228,0 H 92 C 72.666667,0 58.833333,5.6666667 50.5,17 42.166667,28.333333 38,43.666667 38,63 v 409 h 123 c 0,0 -88.388348,-286.61165 0,-375 8.95669,-8.956686 29.04331,-8.956686 38,0 88.38835,88.38835 0,375 0,375 h 126 c 0,0 -88.38835,-286.61165 0,-375 8.95669,-8.956686 29.04331,-8.956686 38,0 88.38835,88.38835 0,375 0,375 h 127 z"
       id="path2"
       inkscape:connector-curvature="0"
       style="fill:currentColor"
       sodipodi:nodetypes="sssscccssssccssccssccs" />
  </g>
</svg>
