<?xml version="1.0" encoding="UTF-8" standalone="no"?>
<svg
   xmlns:dc="http://purl.org/dc/elements/1.1/"
   xmlns:cc="http://creativecommons.org/ns#"
   xmlns:rdf="http://www.w3.org/1999/02/22-rdf-syntax-ns#"
   xmlns:svg="http://www.w3.org/2000/svg"
   xmlns="http://www.w3.org/2000/svg"
   xmlns:sodipodi="http://sodipodi.sourceforge.net/DTD/sodipodi-0.dtd"
   xmlns:inkscape="http://www.inkscape.org/namespaces/inkscape"
   version="1.1"
   viewBox="0 -200 679 1000"
   id="svg6"
   sodipodi:docname="e.svg"
   inkscape:version="0.92.2 5c3e80d, 2017-08-06">
  <metadata
     id="metadata12">
    <rdf:RDF>
      <cc:Work
         rdf:about="">
        <dc:format>image/svg+xml</dc:format>
        <dc:type
           rdf:resource="http://purl.org/dc/dcmitype/StillImage" />
        <dc:title></dc:title>
      </cc:Work>
    </rdf:RDF>
  </metadata>
  <defs
     id="defs10" />
  <sodipodi:namedview
     pagecolor="#ffffff"
     bordercolor="#666666"
     borderopacity="1"
     objecttolerance="10"
     gridtolerance="10"
     guidetolerance="10"
     inkscape:pageopacity="0"
     inkscape:pageshadow="2"
     inkscape:window-width="992"
     inkscape:window-height="740"
     id="namedview8"
     showgrid="false"
     inkscape:zoom="0.52085937"
     inkscape:cx="277.26049"
     inkscape:cy="192.81536"
     inkscape:window-x="0"
     inkscape:window-y="0"
     inkscape:window-maximized="0"
     inkscape:current-layer="svg6" />
  <g
     transform="matrix(1 0 0 -1 0 800)"
     id="g4">
    <path
       d="M 677,-175 H 108 c -21.333333,0 -37.666667,3.33333 -49,10 -15.333333,8.66667 -23,24 -23,46 V -2 C 36,17.333333 40.833333,33.833333 50.5,47.5 60.166667,61.166667 74,68 92,68 c 0,0 314.21644,-57.232271 459,-1 95.08054,36.92819 72.12489,233.87511 0,306 -13.67073,13.67073 -44.32927,13.67073 -58,0 -66.70374,-66.70374 0,-283 0,-283 H 369 c 0,0 66.70374,216.29626 0,283 -46.90475,46.90475 -152.09525,46.90475 -199,0 -5.65685,-5.65685 -5.65685,-18.34315 0,-24 24.74874,-24.74874 105,0 105,0 16.66667,0 30.33333,-5.66667 41,-17 10.66667,-11.33333 16,-27.33333 16,-48 V 167 c 0,-26 -6.66667,-45.66667 -20,-59 C 298.66667,94.666667 280.33333,88 257,88 H 103 c -20.666667,0 -37,7.5 -49,22.5 -12,15 -18,32.83333 -18,53.5 v 219 c 0,34.66667 6.5,58.16667 19.5,70.5 13,12.33333 32.166667,18.5 57.5,18.5 h 266 c 20,0 36,-5 48,-15 7.33333,-6 13.66667,-17 19,-33 4,15.33333 9,26 15,32 10.66667,10.66667 25,16 43,16 h 105 c 27.33333,0 46,-10.66667 56,-32 6.66667,-14 10,-34.33333 10,-61 V 79 c 0,-31.333333 -4.66667,-55 -14,-71 -14.66667,-26 -42,-39 -82,-39 0,0 -312.56113,68.040783 -419,0 -10.95327,-7.001851 -9.19239,-29.807612 0,-39 121.85807,-121.85807 517,0 517,0 z M 208,150 c 25.69155,25.69155 25.69155,83.30845 0,109 -8.95669,8.95669 -29.04331,8.95669 -38,0 -25.69155,-25.69155 -25.69155,-83.30845 0,-109 8.95669,-8.95669 29.04331,-8.95669 38,0 z"
       id="path2"
       inkscape:connector-curvature="0"
       style="fill:currentColor"
       sodipodi:nodetypes="cscssscsssccssssssssssssssssccssscsscsssccsssss" />
  </g>
</svg>
