<?xml version="1.0" encoding="UTF-8" standalone="no"?>
<svg
   xmlns:dc="http://purl.org/dc/elements/1.1/"
   xmlns:cc="http://creativecommons.org/ns#"
   xmlns:rdf="http://www.w3.org/1999/02/22-rdf-syntax-ns#"
   xmlns:svg="http://www.w3.org/2000/svg"
   xmlns="http://www.w3.org/2000/svg"
   xmlns:sodipodi="http://sodipodi.sourceforge.net/DTD/sodipodi-0.dtd"
   xmlns:inkscape="http://www.inkscape.org/namespaces/inkscape"
   version="1.1"
   viewBox="0 -200 851 1000"
   id="svg6"
   sodipodi:docname="Ea.svg"
   inkscape:version="0.92.2 5c3e80d, 2017-08-06">
  <metadata
     id="metadata12">
    <rdf:RDF>
      <cc:Work
         rdf:about="">
        <dc:format>image/svg+xml</dc:format>
        <dc:type
           rdf:resource="http://purl.org/dc/dcmitype/StillImage" />
        <dc:title></dc:title>
      </cc:Work>
    </rdf:RDF>
  </metadata>
  <defs
     id="defs10" />
  <sodipodi:namedview
     pagecolor="#ffffff"
     bordercolor="#666666"
     borderopacity="1"
     objecttolerance="10"
     gridtolerance="10"
     guidetolerance="10"
     inkscape:pageopacity="0"
     inkscape:pageshadow="2"
     inkscape:window-width="640"
     inkscape:window-height="480"
     id="namedview8"
     showgrid="false"
     inkscape:zoom="0.28117187"
     inkscape:cx="363.26049"
     inkscape:cy="215.47652"
     inkscape:window-x="0"
     inkscape:window-y="0"
     inkscape:window-maximized="0"
     inkscape:current-layer="svg6" />
  <g
     transform="matrix(1 0 0 -1 0 800)"
     id="g4">
    <path
       d="m 846,-122 c 0,-17.33333 -4,-30.5 -12,-39.5 -8,-9 -23.33333,-13.5 -46,-13.5 h -85 v 90 c 0,0 16.05025,-4.949747 21,0 43.13351,43.133514 43.13351,139.866486 0,183 -5.89256,5.89256 -25,0 -25,0 v 109 c 0,0 19.10744,-5.89256 25,0 39.12658,39.12658 38.6895,126.44118 0,166 -10.49071,10.72642 -37.00509,13.69616 -45,1 -80.47161,-127.79142 0,-472 0,-472 0,-26 -4,-44.33333 -12,-55 -11.33333,-14.66667 -33,-22 -65,-22 H 469 c -28,0 -47.83333,6.83333 -59.5,20.5 C 397.83333,-140.83333 392,-122 392,-98 V 0 H 192 v 98 h 9 c 0,0 22.15601,71.84399 0,94 -8.95669,8.95669 -29.04331,8.95669 -38,0 C 117.74517,146.74517 163,0 163,0 H 39 v 224 c 0,18.66667 3.666667,32.33333 11,41 10,11.33333 27.666667,17 53,17 h 160 c 22.66667,0 38.66667,-4.66667 48,-14 9.33333,-9.33333 14,-24.66667 14,-46 0,0 -29.22708,-94.77292 0,-124 15.79205,-15.792051 51.20795,-15.792051 67,0 67.64655,67.64655 0,287 0,287 0,58 23,87 69,87 h 334 c 18.66667,0 31,-3 37,-9 9.33333,-8.66667 14,-27 14,-55 V 202 c 0,-19.33333 -6.33333,-33.66667 -19,-43 -4,-2.66667 -10.33333,-5.33333 -19,-8 8.66667,-2.66667 15,-5.33333 19,-8 12.66667,-10 19,-26 19,-48 z M 555,98 c 50.82765,86.39308 47.2711,189.60692 0,276 -6.08009,11.11203 -29.04331,8.95669 -38,0 -65.05382,-65.05382 -65.05382,-210.94618 0,-276 8.95669,-8.956686 31.57697,-10.917384 38,0 z m 0,-185 c 20.27039,20.270394 20.27039,65.729606 0,86 -8.95669,8.9566859 -29.04331,8.9566859 -38,0 -20.27039,-20.270394 -20.27039,-65.729606 0,-86 8.95669,-8.956686 29.04331,-8.956686 38,0 z"
       id="path2"
       inkscape:connector-curvature="0"
       style="fill:currentColor"
       sodipodi:nodetypes="sssccssccsssscssssccccssccscssssssssscsscccssssssssssss" />
  </g>
</svg>
