<?xml version="1.0" encoding="UTF-8" standalone="no"?>
<svg
   xmlns:dc="http://purl.org/dc/elements/1.1/"
   xmlns:cc="http://creativecommons.org/ns#"
   xmlns:rdf="http://www.w3.org/1999/02/22-rdf-syntax-ns#"
   xmlns:svg="http://www.w3.org/2000/svg"
   xmlns="http://www.w3.org/2000/svg"
   xmlns:sodipodi="http://sodipodi.sourceforge.net/DTD/sodipodi-0.dtd"
   xmlns:inkscape="http://www.inkscape.org/namespaces/inkscape"
   version="1.1"
   viewBox="0 -200 487 1000"
   id="svg6"
   sodipodi:docname="ga.svg"
   inkscape:version="0.92.2 5c3e80d, 2017-08-06">
  <metadata
     id="metadata12">
    <rdf:RDF>
      <cc:Work
         rdf:about="">
        <dc:format>image/svg+xml</dc:format>
        <dc:type
           rdf:resource="http://purl.org/dc/dcmitype/StillImage" />
        <dc:title></dc:title>
      </cc:Work>
    </rdf:RDF>
  </metadata>
  <defs
     id="defs10" />
  <sodipodi:namedview
     pagecolor="#ffffff"
     bordercolor="#666666"
     borderopacity="1"
     objecttolerance="10"
     gridtolerance="10"
     guidetolerance="10"
     inkscape:pageopacity="0"
     inkscape:pageshadow="2"
     inkscape:window-width="1347"
     inkscape:window-height="880"
     id="namedview8"
     showgrid="false"
     inkscape:zoom="0.64992187"
     inkscape:cx="181.26049"
     inkscape:cy="500"
     inkscape:window-x="0"
     inkscape:window-y="0"
     inkscape:window-maximized="0"
     inkscape:current-layer="svg6" />
  <g
     transform="matrix(1 0 0 -1 0 800)"
     id="g4">
    <path
       d="M 485,0 H 360 c 0,0 88.15265,285.84735 0,374 -8.72098,8.72098 -28.27902,8.72098 -37,0 C 251.34651,302.34651 323,70 323,70 323,48 315.83333,30.833333 301.5,18.5 287.16667,6.1666667 269.66667,0 249,0 H 108 C 60,0 36,24 36,72 v 400 h 124 c 0,0 -88.388348,-286.61165 0,-375 8.95669,-8.956686 29.04331,-8.956686 38,0 72.5963,72.5963 0,308 0,308 0,44.66667 21.66667,67 65,67 h 156 c 44,0 66,-22.33333 66,-67 z"
       id="path2"
       inkscape:connector-curvature="0"
       style="fill:currentColor"
       sodipodi:nodetypes="ccsssssssccssssssc" />
  </g>
</svg>
