<?xml version="1.0" encoding="UTF-8" standalone="no"?>
<svg
   xmlns:dc="http://purl.org/dc/elements/1.1/"
   xmlns:cc="http://creativecommons.org/ns#"
   xmlns:rdf="http://www.w3.org/1999/02/22-rdf-syntax-ns#"
   xmlns:svg="http://www.w3.org/2000/svg"
   xmlns="http://www.w3.org/2000/svg"
   xmlns:sodipodi="http://sodipodi.sourceforge.net/DTD/sodipodi-0.dtd"
   xmlns:inkscape="http://www.inkscape.org/namespaces/inkscape"
   version="1.1"
   viewBox="0 -200 671 1000"
   id="svg6"
   sodipodi:docname="ha.svg"
   inkscape:version="0.92.2 5c3e80d, 2017-08-06">
  <metadata
     id="metadata12">
    <rdf:RDF>
      <cc:Work
         rdf:about="">
        <dc:format>image/svg+xml</dc:format>
        <dc:type
           rdf:resource="http://purl.org/dc/dcmitype/StillImage" />
        <dc:title></dc:title>
      </cc:Work>
    </rdf:RDF>
  </metadata>
  <defs
     id="defs10" />
  <sodipodi:namedview
     pagecolor="#ffffff"
     bordercolor="#666666"
     borderopacity="1"
     objecttolerance="10"
     gridtolerance="10"
     guidetolerance="10"
     inkscape:pageopacity="0"
     inkscape:pageshadow="2"
     inkscape:window-width="640"
     inkscape:window-height="480"
     id="namedview8"
     showgrid="false"
     inkscape:zoom="0.285"
     inkscape:cx="335.5"
     inkscape:cy="500"
     inkscape:window-x="0"
     inkscape:window-y="0"
     inkscape:window-maximized="0"
     inkscape:current-layer="svg6" />
  <g
     transform="matrix(1 0 0 -1 0 800)"
     id="g4">
    <path
       d="M 670,0 H 545 c 0,0 96.63793,313.36207 0,410 -9.42809,9.42809 -30.57191,9.42809 -40,0 -82.26009,-82.26009 -54.18991,-242.17851 0,-349 1.50803,-2.972699 10,0 10,0 V 0 H 191 v 97 c 0,0 6.11438,-1.885618 8,0 22.39171,22.39171 22.39171,72.60829 0,95 -8.95669,8.95669 -29.04331,8.95669 -38,0 C 115.74517,146.74517 161,0 161,0 H 37 v 224 c 0,18.66667 3.666667,32.33333 11,41 10,11.33333 27.666667,17 53,17 h 160 c 22,0 38,-4.66667 48,-14 10,-9.33333 15,-24.66667 15,-46 0,0 -29.46278,-95.53722 0,-125 15.55635,-15.556349 56.69123,-19.93356 66,0 49.18664,105.32699 0,298 0,298 0,23.33333 5,42 15,56 10,14 25.66667,21 47,21 h 162 c 20,0 34.33333,-5.5 43,-16.5 8.66667,-11 13,-27.16667 13,-48.5 z"
       id="path2"
       inkscape:connector-curvature="0"
       style="fill:currentColor"
       sodipodi:nodetypes="ccsssccccsssccscssssssssssssc" />
  </g>
</svg>
