<?xml version="1.0" encoding="UTF-8" standalone="no"?>
<svg
   xmlns:dc="http://purl.org/dc/elements/1.1/"
   xmlns:cc="http://creativecommons.org/ns#"
   xmlns:rdf="http://www.w3.org/1999/02/22-rdf-syntax-ns#"
   xmlns:svg="http://www.w3.org/2000/svg"
   xmlns="http://www.w3.org/2000/svg"
   xmlns:sodipodi="http://sodipodi.sourceforge.net/DTD/sodipodi-0.dtd"
   xmlns:inkscape="http://www.inkscape.org/namespaces/inkscape"
   version="1.1"
   viewBox="0 -200 653 1000"
   id="svg6"
   sodipodi:docname="ja.svg"
   inkscape:version="0.92.2 5c3e80d, 2017-08-06">
  <metadata
     id="metadata12">
    <rdf:RDF>
      <cc:Work
         rdf:about="">
        <dc:format>image/svg+xml</dc:format>
        <dc:type
           rdf:resource="http://purl.org/dc/dcmitype/StillImage" />
        <dc:title></dc:title>
      </cc:Work>
    </rdf:RDF>
  </metadata>
  <defs
     id="defs10" />
  <sodipodi:namedview
     pagecolor="#ffffff"
     bordercolor="#666666"
     borderopacity="1"
     objecttolerance="10"
     gridtolerance="10"
     guidetolerance="10"
     inkscape:pageopacity="0"
     inkscape:pageshadow="2"
     inkscape:window-width="1271"
     inkscape:window-height="778"
     id="namedview8"
     showgrid="false"
     inkscape:zoom="0.55589062"
     inkscape:cx="264.26049"
     inkscape:cy="500"
     inkscape:window-x="0"
     inkscape:window-y="0"
     inkscape:window-maximized="0"
     inkscape:current-layer="svg6" />
  <g
     transform="matrix(1 0 0 -1 0 800)"
     id="g4">
    <path
       d="M 650,70 C 650,50 646.66667,34.333333 640,23 630.66667,7.6666667 616,0 596,0 H 414 C 397.33333,0 384.5,5.5 375.5,16.5 366.5,27.5 362,39.666667 362,53 V 82 L 208,11 C 198.66667,7 190.66667,4.1666667 184,2.5 177.33333,0.83333333 169.66667,0 161,0 H 114 C 90,0 72,3.6666667 60,11 44,21 36,38.333333 36,63 v 63 c 0,21.33333 10.333333,37 31,47 6.666667,2.66667 17,5.33333 31,8 -14,2 -24.333333,4.66667 -31,8 -20.666667,10.66667 -31,28.33333 -31,53 v 165 c 0,20 6.333333,35.83333 19,47.5 12.666667,11.66667 32.333333,17.5 59,17.5 h 229 c 25.33333,0 42.33333,-8 51,-24 2.66667,-5.33333 4.33333,-13.33333 5,-24 2,15.33333 5.66667,26 11,32 9.33333,10.66667 23,16 41,16 h 146 c 18.66667,0 32.16667,-6 40.5,-18 8.33333,-12 12.5,-27.33333 12.5,-46 V 242 c 0,-25.33333 -11.33333,-43.66667 -34,-55 -3.33333,-2 -8.66667,-4 -16,-6 16.66667,-1.33333 28,-5 34,-11 10.66667,-10.66667 16,-27.33333 16,-50 z M 526,212 c 37.94806,37.94806 37.94806,123.05194 0,161 -8.72098,8.72098 -28.27902,8.72098 -37,0 -37.94806,-37.94806 -37.94806,-123.05194 0,-161 8.72098,-8.72098 28.27902,-8.72098 37,0 z m -164,0 c 37.94806,37.94806 37.94806,123.05194 0,161 -47.61186,47.61186 -154.38814,47.61186 -202,0 -5.89256,-5.89256 -5.89256,-19.10744 0,-25 24.74874,-24.74874 105,0 105,0 20.66667,0 34.66667,-5.66667 42,-17 5.33333,-8 8,-20.66667 8,-38 v -48 c 0,-10.66667 -4.66667,-19.33333 -14,-26 -2.66667,-2 -7.33333,-4.33333 -14,-7 0,0 57.32233,-17.67767 75,0 z m -164,0 c 17.67767,17.67767 17.67767,57.32233 0,75 -8.95669,8.95669 -29.04331,8.95669 -38,0 -17.67767,-17.67767 -17.67767,-57.32233 0,-75 8.95669,-8.95669 29.04331,-8.95669 38,0 z m 151,-80 c 0,0 -144.45227,44.54773 -189,0 -16.73486,-16.73486 -19.45615,-57.525228 0,-71 55.32561,-38.316941 189,71 189,71 z M 526,61 c 16.73486,16.73486 16.73486,54.26514 0,71 -8.72098,8.72098 -28.27902,8.72098 -37,0 -16.73486,-16.73486 -16.73486,-54.26514 0,-71 8.72098,-8.720984 28.27902,-8.720984 37,0 z"
       id="path2"
       inkscape:connector-curvature="0"
       style="fill:currentColor"
       sodipodi:nodetypes="scssssccssscsscccssssscccsssssccssssssssssssscssccsssssscsscsssss" />
  </g>
</svg>
