<?xml version="1.0" encoding="UTF-8" standalone="no"?>
<svg
   xmlns:dc="http://purl.org/dc/elements/1.1/"
   xmlns:cc="http://creativecommons.org/ns#"
   xmlns:rdf="http://www.w3.org/1999/02/22-rdf-syntax-ns#"
   xmlns:svg="http://www.w3.org/2000/svg"
   xmlns="http://www.w3.org/2000/svg"
   xmlns:sodipodi="http://sodipodi.sourceforge.net/DTD/sodipodi-0.dtd"
   xmlns:inkscape="http://www.inkscape.org/namespaces/inkscape"
   version="1.1"
   viewBox="0 -200 649 1000"
   id="svg6"
   sodipodi:docname="ka.svg"
   inkscape:version="0.92.2 5c3e80d, 2017-08-06">
  <metadata
     id="metadata12">
    <rdf:RDF>
      <cc:Work
         rdf:about="">
        <dc:format>image/svg+xml</dc:format>
        <dc:type
           rdf:resource="http://purl.org/dc/dcmitype/StillImage" />
        <dc:title></dc:title>
      </cc:Work>
    </rdf:RDF>
  </metadata>
  <defs
     id="defs10" />
  <sodipodi:namedview
     pagecolor="#ffffff"
     bordercolor="#666666"
     borderopacity="1"
     objecttolerance="10"
     gridtolerance="10"
     guidetolerance="10"
     inkscape:pageopacity="0"
     inkscape:pageshadow="2"
     inkscape:window-width="1403"
     inkscape:window-height="881"
     id="namedview8"
     showgrid="false"
     inkscape:zoom="0.65084375"
     inkscape:cx="262.26049"
     inkscape:cy="500"
     inkscape:window-x="0"
     inkscape:window-y="0"
     inkscape:window-maximized="0"
     inkscape:current-layer="svg6" />
  <g
     transform="matrix(1 0 0 -1 0 800)"
     id="g4">
    <path
       d="M 647,59 C 647,39.666667 643.5,25 636.5,15 629.5,5 617,0 599,0 h -95 v 99 c 0,0 14.52166,-4.478343 19,0 36.06245,36.06245 36.06245,116.93755 0,153 -8.95669,8.95669 -29.04331,8.95669 -38,0 C 440.92368,207.92368 485,65 485,65 485,47 479,31.666667 467,19 455,6.3333333 440,0 422,0 H 267 c -18,0 -33,6.3333333 -45,19 -8.66667,9.333333 -14,18.666667 -16,28 0,-7.333333 -1.83333,-14.5 -5.5,-21.5 -3.66667,-7 -8,-13 -13,-18 C 182.5,2.5 173.66667,0 161,0 H 104 C 82.666667,0 66.166667,4.6666667 54.5,14 42.833333,23.333333 37,39.666667 37,63 v 221 c 0,20 7.5,35.83333 22.5,47.5 15,11.66667 33.5,17.5 55.5,17.5 h 84 v 56 c 0,44.66667 26.33333,67 79,67 h 128 c 25.33333,0 44.83333,-6 58.5,-18 13.66667,-12 20.5,-28.33333 20.5,-49 v -56 h 106 c 17.33333,0 31,-6.33333 41,-19 10,-12.66667 15,-28.33333 15,-47 z M 361,349 c 14.37784,14.37784 14.37784,46.62216 0,61 -8.72098,8.72098 -28.27902,8.72098 -37,0 -14.37784,-14.37784 -14.37784,-46.62216 0,-61 8.72098,-8.72098 28.27902,-8.72098 37,0 z m 0,-250 c 36.06245,36.06245 36.06245,116.93755 0,153 -8.72098,8.72098 -28.27902,8.72098 -37,0 -36.06245,-36.06245 -36.06245,-116.93755 0,-153 8.72098,-8.720984 28.27902,-8.720984 37,0 z m -162,0 c 36.06245,36.06245 36.06245,116.93755 0,153 -8.95669,8.95669 -29.04331,8.95669 -38,0 -36.06245,-36.06245 -36.06245,-116.93755 0,-153 8.95669,-8.956686 29.04331,-8.956686 38,0 z"
       id="path2"
       inkscape:connector-curvature="0"
       style="fill:currentColor"
       sodipodi:nodetypes="sssccsssssssccssssssssscssssscsssssssssssssssssss" />
  </g>
</svg>
