<?xml version="1.0" encoding="UTF-8" standalone="no"?>
<svg
   xmlns:dc="http://purl.org/dc/elements/1.1/"
   xmlns:cc="http://creativecommons.org/ns#"
   xmlns:rdf="http://www.w3.org/1999/02/22-rdf-syntax-ns#"
   xmlns:svg="http://www.w3.org/2000/svg"
   xmlns="http://www.w3.org/2000/svg"
   xmlns:sodipodi="http://sodipodi.sourceforge.net/DTD/sodipodi-0.dtd"
   xmlns:inkscape="http://www.inkscape.org/namespaces/inkscape"
   version="1.1"
   viewBox="0 -200 653 1000"
   id="svg6"
   sodipodi:docname="kha.svg"
   inkscape:version="0.92.2 5c3e80d, 2017-08-06">
  <metadata
     id="metadata12">
    <rdf:RDF>
      <cc:Work
         rdf:about="">
        <dc:format>image/svg+xml</dc:format>
        <dc:type
           rdf:resource="http://purl.org/dc/dcmitype/StillImage" />
        <dc:title></dc:title>
      </cc:Work>
    </rdf:RDF>
  </metadata>
  <defs
     id="defs10" />
  <sodipodi:namedview
     pagecolor="#ffffff"
     bordercolor="#666666"
     borderopacity="1"
     objecttolerance="10"
     gridtolerance="10"
     guidetolerance="10"
     inkscape:pageopacity="0"
     inkscape:pageshadow="2"
     inkscape:window-width="1402"
     inkscape:window-height="856"
     id="namedview8"
     showgrid="false"
     inkscape:zoom="0.62779687"
     inkscape:cx="264.26049"
     inkscape:cy="500"
     inkscape:window-x="0"
     inkscape:window-y="0"
     inkscape:window-maximized="0"
     inkscape:current-layer="svg6" />
  <g
     transform="matrix(1 0 0 -1 0 800)"
     id="g4">
    <path
       d="M 651,0 H 351 v 97 c 0,0 13.75736,-4.242641 18,0 65.05382,65.05382 65.05382,210.94618 0,276 -46.90475,46.90475 -152.09525,46.90475 -199,0 -5.65685,-5.65685 -5.65685,-18.34315 0,-24 26.16295,-26.16295 111,0 111,0 15.33333,0 27.66667,-5 37,-15 9.33333,-10 14,-22.66667 14,-38 V 74 C 332,24.666667 309.66667,0 265,0 H 101 C 57.666667,0 36,24 36,72 v 318 c 0,21.33333 6.833333,40.33333 20.5,57 13.666667,16.66667 30.5,25 50.5,25 h 316 c 20.66667,0 37.33333,-7 50,-21 12.66667,-14 19,-31.66667 19,-53 0,0 -70.94638,-230.05362 0,-301 8.95669,-8.956686 29.04331,-8.956686 38,0 88.38835,88.38835 0,375 0,375 H 651 Z M 208,97 c 38.65517,38.65517 38.65517,125.34483 0,164 -8.95669,8.95669 -29.04331,8.95669 -38,0 -38.65517,-38.65517 -38.65517,-125.34483 0,-164 8.95669,-8.956686 29.04331,-8.956686 38,0 z"
       id="path2"
       inkscape:connector-curvature="0"
       style="fill:currentColor"
       sodipodi:nodetypes="cccssssssssssssssssssscccsssss" />
  </g>
</svg>
