<?xml version="1.0" encoding="UTF-8" standalone="no"?>
<svg
   xmlns:dc="http://purl.org/dc/elements/1.1/"
   xmlns:cc="http://creativecommons.org/ns#"
   xmlns:rdf="http://www.w3.org/1999/02/22-rdf-syntax-ns#"
   xmlns:svg="http://www.w3.org/2000/svg"
   xmlns="http://www.w3.org/2000/svg"
   xmlns:sodipodi="http://sodipodi.sourceforge.net/DTD/sodipodi-0.dtd"
   xmlns:inkscape="http://www.inkscape.org/namespaces/inkscape"
   version="1.1"
   viewBox="0 -200 808 1000"
   id="svg6"
   sodipodi:docname="kka.svg"
   inkscape:version="0.92.2 5c3e80d, 2017-08-06">
  <metadata
     id="metadata12">
    <rdf:RDF>
      <cc:Work
         rdf:about="">
        <dc:format>image/svg+xml</dc:format>
        <dc:type
           rdf:resource="http://purl.org/dc/dcmitype/StillImage" />
        <dc:title></dc:title>
      </cc:Work>
    </rdf:RDF>
  </metadata>
  <defs
     id="defs10" />
  <sodipodi:namedview
     pagecolor="#ffffff"
     bordercolor="#666666"
     borderopacity="1"
     objecttolerance="10"
     gridtolerance="10"
     guidetolerance="10"
     inkscape:pageopacity="0"
     inkscape:pageshadow="2"
     inkscape:window-width="911"
     inkscape:window-height="688"
     id="namedview8"
     showgrid="false"
     inkscape:zoom="0.47292187"
     inkscape:cx="341.76049"
     inkscape:cy="500"
     inkscape:window-x="0"
     inkscape:window-y="0"
     inkscape:window-maximized="0"
     inkscape:current-layer="svg6" />
  <g
     transform="matrix(1 0 0 -1 0 800)"
     id="g4">
    <path
       d="M 805,64 C 805,44.666667 800.66667,29.166667 792,17.5 783.33333,5.8333333 768,0 746,0 h -82 v 97 c 0,0 13.75736,-4.242641 18,0 65.05382,65.05382 65.58116,237.593 0,276 -56.5331,33.10809 -140.75838,23.40939 -198,0 -7.40472,-3.02821 -5.65685,-18.34315 0,-24 26.39865,-26.39865 112,0 112,0 17.33333,0 29.66667,-4.66667 37,-14 7.33333,-9.33333 11,-21.33333 11,-36 V 63 C 644,45 639.33333,30 630,18 620.66667,6 607,0 589,0 h -80 c -9.33333,0 -17.66667,4 -25,12 -2,2.666667 -4.66667,6.666667 -8,12 1.33333,-4.666667 -1.5,-9.833333 -8.5,-15.5 C 460.5,2.8333333 452.66667,0 444,0 H 267 C 248.33333,0 234,4.3333333 224,13 214,21.666667 209.66667,29.666667 211,37 211,27.666667 205.83333,19.166667 195.5,11.5 185.16667,3.8333333 173.66667,0 161,0 H 104 C 82.666667,0 66.166667,4.6666667 54.5,14 42.833333,23.333333 37,39.666667 37,63 v 188 c 0,34.66667 7.666667,60 23,76 12.666667,13.33333 31,20 55,20 h 84 v 58 c 0,44.66667 26.33333,67 79,67 h 159 c 12.66667,0 22.66667,-4.33333 30,-13 2,-2.66667 4.66667,-7.33333 8,-14 0.66667,3.33333 1.33333,6 2,8 5.33333,12.66667 16.33333,19 33,19 h 236 c 18,0 32.33333,-5.33333 43,-16 10.66667,-10.66667 16,-26.33333 16,-47 z M 361,347 c 6.12826,6.12826 6.12826,19.87174 0,26 -8.72098,8.72098 -28.27902,8.72098 -37,0 -6.12826,-6.12826 -6.12826,-19.87174 0,-26 8.72098,-8.72098 28.27902,-8.72098 37,0 z M 522,97 c 37.94806,37.94806 37.94806,123.05194 0,161 -8.95669,8.95669 -29.04331,8.95669 -38,0 -37.94806,-37.94806 -37.94806,-123.05194 0,-161 8.95669,-8.956686 29.04331,-8.956686 38,0 z m -161,0 c 37.71236,37.71236 37.71236,122.28764 0,160 -8.72098,8.72098 -28.27902,8.72098 -37,0 -37.71236,-37.71236 -37.71236,-122.28764 0,-160 8.72098,-8.720984 28.27902,-8.720984 37,0 z m -162,0 c 37.71236,37.71236 37.71236,122.28764 0,160 -8.95669,8.95669 -29.04331,8.95669 -38,0 -37.71236,-37.71236 -37.71236,-122.28764 0,-160 8.95669,-8.956686 29.04331,-8.956686 38,0 z"
       id="path2"
       inkscape:connector-curvature="0"
       style="fill:currentColor"
       sodipodi:nodetypes="sssccsssssssssssccsssscsssssscscssscccsssssssssssssssssssssssss" />
  </g>
</svg>
