<?xml version="1.0" encoding="UTF-8" standalone="no"?>
<svg
   xmlns:dc="http://purl.org/dc/elements/1.1/"
   xmlns:cc="http://creativecommons.org/ns#"
   xmlns:rdf="http://www.w3.org/1999/02/22-rdf-syntax-ns#"
   xmlns:svg="http://www.w3.org/2000/svg"
   xmlns="http://www.w3.org/2000/svg"
   xmlns:sodipodi="http://sodipodi.sourceforge.net/DTD/sodipodi-0.dtd"
   xmlns:inkscape="http://www.inkscape.org/namespaces/inkscape"
   version="1.1"
   viewBox="0 -200 487 1000"
   id="svg6"
   sodipodi:docname="la.svg"
   inkscape:version="0.92.2 5c3e80d, 2017-08-06">
  <metadata
     id="metadata12">
    <rdf:RDF>
      <cc:Work
         rdf:about="">
        <dc:format>image/svg+xml</dc:format>
        <dc:type
           rdf:resource="http://purl.org/dc/dcmitype/StillImage" />
        <dc:title></dc:title>
      </cc:Work>
    </rdf:RDF>
  </metadata>
  <defs
     id="defs10" />
  <sodipodi:namedview
     pagecolor="#ffffff"
     bordercolor="#666666"
     borderopacity="1"
     objecttolerance="10"
     gridtolerance="10"
     guidetolerance="10"
     inkscape:pageopacity="0"
     inkscape:pageshadow="2"
     inkscape:window-width="1095"
     inkscape:window-height="784"
     id="namedview8"
     showgrid="false"
     inkscape:zoom="0.56142187"
     inkscape:cx="181.26049"
     inkscape:cy="500"
     inkscape:window-x="0"
     inkscape:window-y="0"
     inkscape:window-maximized="0"
     inkscape:current-layer="svg6" />
  <g
     transform="matrix(1 0 0 -1 0 800)"
     id="g4">
    <path
       d="M 485,0 H 36 v 403 c 0,46 18.666667,69 56,69 h 170 c 40,0 60,-21.66667 60,-65 V 178 c 0,0 -124.58053,38.41947 -163,0 -19.09188,-19.09188 -19.09188,-61.90812 0,-81 47.37615,-47.376154 153.62385,-47.376154 201,0 88.38835,88.38835 0,375 0,375 H 485 Z M 197,262 c 0,0 26.63436,86.36564 0,113 -8.95669,8.95669 -29.04331,8.95669 -38,0 -26.63436,-26.63436 -26.63436,-86.36564 0,-113 8.95669,-8.95669 38,0 38,0 z"
       id="path2"
       inkscape:connector-curvature="0"
       style="fill:currentColor"
       sodipodi:nodetypes="ccsssscssscccsssss" />
  </g>
</svg>
