<?xml version="1.0" encoding="UTF-8" standalone="no"?>
<svg
   xmlns:dc="http://purl.org/dc/elements/1.1/"
   xmlns:cc="http://creativecommons.org/ns#"
   xmlns:rdf="http://www.w3.org/1999/02/22-rdf-syntax-ns#"
   xmlns:svg="http://www.w3.org/2000/svg"
   xmlns="http://www.w3.org/2000/svg"
   xmlns:sodipodi="http://sodipodi.sourceforge.net/DTD/sodipodi-0.dtd"
   xmlns:inkscape="http://www.inkscape.org/namespaces/inkscape"
   version="1.1"
   viewBox="0 -200 543 1000"
   id="svg6"
   sodipodi:docname="lha.svg"
   inkscape:version="0.92.2 5c3e80d, 2017-08-06">
  <metadata
     id="metadata12">
    <rdf:RDF>
      <cc:Work
         rdf:about="">
        <dc:format>image/svg+xml</dc:format>
        <dc:type
           rdf:resource="http://purl.org/dc/dcmitype/StillImage" />
        <dc:title></dc:title>
      </cc:Work>
    </rdf:RDF>
  </metadata>
  <defs
     id="defs10" />
  <sodipodi:namedview
     pagecolor="#ffffff"
     bordercolor="#666666"
     borderopacity="1"
     objecttolerance="10"
     gridtolerance="10"
     guidetolerance="10"
     inkscape:pageopacity="0"
     inkscape:pageshadow="2"
     inkscape:window-width="1072"
     inkscape:window-height="846"
     id="namedview8"
     showgrid="false"
     inkscape:zoom="0.61857812"
     inkscape:cx="209.26049"
     inkscape:cy="306.00672"
     inkscape:window-x="0"
     inkscape:window-y="0"
     inkscape:window-maximized="0"
     inkscape:current-layer="svg6" />
  <g
     transform="matrix(1 0 0 -1 0 800)"
     id="g4">
    <path
       d="m 542,64 c 0,-32.666667 -7,-57 -21,-73 -11.33333,-12.666667 -32.32927,-32.670729 -46,-19 -3.30734,3.30734 -235.0711,41.173615 -324,0 -12.70438,-5.882061 -9.89949,-32.100505 0,-42 90.74537,-90.74537 385,0 385,0 V -175 H 108 c -21.333333,0 -37.666667,3.33333 -49,10 -15.333333,8.66667 -23,24 -23,46 V -2 c 0,42 18.666667,63 56,63 0,0 232.23066,-60.43712825 325,0 32.39793,21.106519 27.34146,88.65854 0,116 -13.43503,13.43503 -57,0 -57,0 v 109 c 0,0 43.56497,-13.43503 57,0 20.5061,20.5061 20.5061,66.4939 0,87 -60.57548,60.57548 -196.42452,60.57548 -257,0 -5.65685,-5.65685 -5.65685,-18.34315 0,-24 23.33452,-23.33452 99,0 99,0 20,0 34.66667,-3.33333 44,-10 13.33333,-9.33333 20,-25.66667 20,-49 V 158 c 0,-21.33333 -4,-37.66667 -12,-49 C 301,95 286,88 266,88 H 101 C 79.666667,88 63.5,94.166667 52.5,106.5 41.5,118.83333 36,135 36,155 v 239 c 0,22 7.5,40.5 22.5,55.5 15,15 33.166667,22.5 54.5,22.5 h 369 c 40,0 60,-21.66667 60,-65 V 287 c 0,-20 -6.33333,-34.33333 -19,-43 -4,-2.66667 -10.66667,-5.33333 -20,-8 8.66667,-2.66667 15,-5.33333 19,-8 13.33333,-10 20,-26 20,-48 z M 198,175 c 20.27039,20.27039 20.27039,65.72961 0,86 -8.95669,8.95669 -29.04331,8.95669 -38,0 -20.27039,-20.27039 -20.27039,-65.72961 0,-86 8.95669,-8.95669 29.04331,-8.95669 38,0 z"
       id="path2"
       inkscape:connector-curvature="0"
       style="fill:currentColor"
       sodipodi:nodetypes="scsssccscsssssccssssscsscsssssssssscccsssssss" />
  </g>
</svg>
