<?xml version="1.0" encoding="UTF-8" standalone="no"?>
<svg
   xmlns:dc="http://purl.org/dc/elements/1.1/"
   xmlns:cc="http://creativecommons.org/ns#"
   xmlns:rdf="http://www.w3.org/1999/02/22-rdf-syntax-ns#"
   xmlns:svg="http://www.w3.org/2000/svg"
   xmlns="http://www.w3.org/2000/svg"
   xmlns:sodipodi="http://sodipodi.sourceforge.net/DTD/sodipodi-0.dtd"
   xmlns:inkscape="http://www.inkscape.org/namespaces/inkscape"
   version="1.1"
   viewBox="0 -200 492 1000"
   id="svg6"
   sodipodi:docname="naa.svg"
   inkscape:version="0.92.2 5c3e80d, 2017-08-06">
  <metadata
     id="metadata12">
    <rdf:RDF>
      <cc:Work
         rdf:about="">
        <dc:format>image/svg+xml</dc:format>
        <dc:type
           rdf:resource="http://purl.org/dc/dcmitype/StillImage" />
        <dc:title></dc:title>
      </cc:Work>
    </rdf:RDF>
  </metadata>
  <defs
     id="defs10" />
  <sodipodi:namedview
     pagecolor="#ffffff"
     bordercolor="#666666"
     borderopacity="1"
     objecttolerance="10"
     gridtolerance="10"
     guidetolerance="10"
     inkscape:pageopacity="0"
     inkscape:pageshadow="2"
     inkscape:window-width="640"
     inkscape:window-height="480"
     id="namedview8"
     showgrid="false"
     inkscape:zoom="0.28117187"
     inkscape:cx="183.76049"
     inkscape:cy="500"
     inkscape:window-x="0"
     inkscape:window-y="0"
     inkscape:window-maximized="0"
     inkscape:current-layer="svg6" />
  <g
     transform="matrix(1 0 0 -1 0 800)"
     id="g4">
    <path
       d="M 490,-2 363,0 c 0,0 87.91694,285.08306 0,373 -8.95669,8.95669 -29.04331,8.95669 -38,0 C 237.08306,285.08306 325,0 325,0 H 199 c 0,0 87.91694,285.08306 0,373 -8.95669,8.95669 -29.04331,8.95669 -38,0 C 73.083057,285.08306 161,0 161,0 H 38 v 408 c 0,19.33333 4,34.83333 12,46.5 8,11.66667 22,17.5 42,17.5 h 140 c 18,0 31,-4.66667 39,-14 5.33333,-6 9,-17 11,-33 4.66667,14.66667 9.66667,25 15,31 10,10.66667 22.33333,16 37,16 h 95 c 20.66667,0 36,-6 46,-18 10,-12 15,-27.66667 15,-47 z"
       id="path2"
       inkscape:connector-curvature="0"
       style="fill:currentColor"
       sodipodi:nodetypes="ccssccssccsssscccssssc" />
  </g>
</svg>
