<?xml version="1.0" encoding="UTF-8" standalone="no"?>
<svg
   xmlns:dc="http://purl.org/dc/elements/1.1/"
   xmlns:cc="http://creativecommons.org/ns#"
   xmlns:rdf="http://www.w3.org/1999/02/22-rdf-syntax-ns#"
   xmlns:svg="http://www.w3.org/2000/svg"
   xmlns="http://www.w3.org/2000/svg"
   xmlns:sodipodi="http://sodipodi.sourceforge.net/DTD/sodipodi-0.dtd"
   xmlns:inkscape="http://www.inkscape.org/namespaces/inkscape"
   version="1.1"
   viewBox="0 -200 702 1000"
   id="svg6"
   sodipodi:docname="nga.svg"
   inkscape:version="0.92.2 5c3e80d, 2017-08-06">
  <metadata
     id="metadata12">
    <rdf:RDF>
      <cc:Work
         rdf:about="">
        <dc:format>image/svg+xml</dc:format>
        <dc:type
           rdf:resource="http://purl.org/dc/dcmitype/StillImage" />
        <dc:title></dc:title>
      </cc:Work>
    </rdf:RDF>
  </metadata>
  <defs
     id="defs10" />
  <sodipodi:namedview
     pagecolor="#ffffff"
     bordercolor="#666666"
     borderopacity="1"
     objecttolerance="10"
     gridtolerance="10"
     guidetolerance="10"
     inkscape:pageopacity="0"
     inkscape:pageshadow="2"
     inkscape:window-width="994"
     inkscape:window-height="689"
     id="namedview8"
     showgrid="false"
     inkscape:zoom="0.47384375"
     inkscape:cx="288.76049"
     inkscape:cy="500"
     inkscape:window-x="0"
     inkscape:window-y="0"
     inkscape:window-maximized="0"
     inkscape:current-layer="svg6" />
  <g
     transform="matrix(1 0 0 -1 0 800)"
     id="g4">
    <path
       d="M 699,64 C 699,21.333333 679.66667,0 641,0 H 518 v 97 c 0,0 43.56497,-13.435029 57,0 18.85618,18.85618 18.85618,61.14382 0,80 -13.43503,13.43503 -57,0 -57,0 v 109 c 0,0 43.56497,-13.43503 57,0 20.5061,20.5061 20.5061,66.4939 0,87 -22.15601,22.15601 -71.84399,22.15601 -94,0 C 393.08306,285.08306 481,0 481,0 H 358 c 0,0 87.91694,285.08306 0,373 -46.66905,46.66905 -151.33095,46.66905 -198,0 -5.65685,-5.65685 -5.65685,-18.34315 0,-24 26.39865,-26.39865 112,0 112,0 15.33333,0 27.66667,-5 37,-15 9.33333,-10 14,-22.66667 14,-38 V 62 C 323,20.666667 303.33333,0 264,0 H 97 C 77.666667,0 62.666667,6 52,18 41.333333,30 36,46.666667 36,68 v 339 c 0,43.33333 20.333333,65 61,65 h 248 c 25.33333,0 44.66667,-8 58,-24 4,-5.33333 8.33333,-13.33333 13,-24 4,10.66667 8,18.66667 12,24 12.66667,16 30.33333,24 53,24 h 159 c 18.66667,0 33.16667,-5.83333 43.5,-17.5 C 693.83333,442.83333 699,427 699,407 V 287 c 0,-20 -6.33333,-34.33333 -19,-43 -4,-2.66667 -10.66667,-5.33333 -20,-8 8.66667,-2.66667 15,-5.33333 19,-8 13.33333,-10 20,-26 20,-48 z M 198,97 c 38.65517,38.65517 38.65517,125.34483 0,164 -8.95669,8.95669 -29.04331,8.95669 -38,0 -38.65517,-38.65517 -38.65517,-125.34483 0,-164 8.95669,-8.956686 29.04331,-8.956686 38,0 z"
       id="path2"
       inkscape:connector-curvature="0"
       style="fill:currentColor"
       sodipodi:nodetypes="ssccssccsssccsssssssssssssscccssssscccsssssss" />
  </g>
</svg>
