<?xml version="1.0" encoding="UTF-8" standalone="no"?>
<svg
   xmlns:dc="http://purl.org/dc/elements/1.1/"
   xmlns:cc="http://creativecommons.org/ns#"
   xmlns:rdf="http://www.w3.org/1999/02/22-rdf-syntax-ns#"
   xmlns:svg="http://www.w3.org/2000/svg"
   xmlns="http://www.w3.org/2000/svg"
   xmlns:sodipodi="http://sodipodi.sourceforge.net/DTD/sodipodi-0.dtd"
   xmlns:inkscape="http://www.inkscape.org/namespaces/inkscape"
   version="1.1"
   viewBox="0 -200 979 1000"
   id="svg6"
   sodipodi:docname="nja.svg"
   inkscape:version="0.92.2 5c3e80d, 2017-08-06">
  <metadata
     id="metadata12">
    <rdf:RDF>
      <cc:Work
         rdf:about="">
        <dc:format>image/svg+xml</dc:format>
        <dc:type
           rdf:resource="http://purl.org/dc/dcmitype/StillImage" />
        <dc:title></dc:title>
      </cc:Work>
    </rdf:RDF>
  </metadata>
  <defs
     id="defs10" />
  <sodipodi:namedview
     pagecolor="#ffffff"
     bordercolor="#666666"
     borderopacity="1"
     objecttolerance="10"
     gridtolerance="10"
     guidetolerance="10"
     inkscape:pageopacity="0"
     inkscape:pageshadow="2"
     inkscape:window-width="640"
     inkscape:window-height="480"
     id="namedview8"
     showgrid="false"
     inkscape:zoom="0.28117187"
     inkscape:cx="427.26049"
     inkscape:cy="500"
     inkscape:window-x="0"
     inkscape:window-y="0"
     inkscape:window-maximized="0"
     inkscape:current-layer="svg6" />
  <g
     transform="matrix(1 0 0 -1 0 800)"
     id="g4">
    <path
       d="M 976,64 C 976,42 974.66667,27.333333 972,20 966.66667,5.3333333 955,-2 937,-2 H 831 V 98 c 0,0 14.52166,-4.478343 19,0 65.05382,65.05382 65.05382,210.94618 0,276 -8.95669,8.95669 -29.04331,8.95669 -38,0 -73.53911,-73.53911 0,-312 0,-312 0,-20 -3,-34.333333 -9,-43 C 794.33333,6.3333333 777.66667,0 753,0 H 579 c -20,0 -34,6.1666667 -42,18.5 -8,12.333333 -12,28.166667 -12,47.5 0,0 72.5963,235.4037 0,308 -8.95669,8.95669 -29.04331,8.95669 -38,0 C 398.84735,285.84735 487,0 487,0 H 361 c 0,0 88.15265,285.84735 0,374 -47.37615,47.37615 -153.62385,47.37615 -201,0 -5.89256,-5.89256 -5.89256,-19.10744 0,-25 26.39865,-26.39865 112,0 112,0 15.33333,0 27.66667,-4.66667 37,-14 9.33333,-9.33333 14,-21 14,-35 V 62 C 323,20.666667 303.33333,0 264,0 H 97 C 77.666667,0 62.666667,6 52,18 41.333333,30 36,46.666667 36,68 v 339 c 0,43.33333 20.333333,65 61,65 h 292 c 24.66667,0 41,-8 49,-24 2,-5.33333 3.33333,-13.33333 4,-24 0.66667,6.66667 1.33333,11.66667 2,15 6.66667,22 23.33333,33 50,33 h 422 c 20,0 35,-6 45,-18 10,-12 15,-27.33333 15,-46 z M 686,98 c 65.05382,65.05382 65.05382,210.94618 0,276 -8.95669,8.95669 -29.04331,8.95669 -38,0 -65.05382,-65.05382 -65.05382,-210.94618 0,-276 8.95669,-8.956686 29.04331,-8.956686 38,0 z m -488,0 c 38.41947,38.41947 38.41947,124.58053 0,163 -8.95669,8.95669 -29.04331,8.95669 -38,0 -38.41947,-38.41947 -38.41947,-124.58053 0,-163 8.95669,-8.956686 29.04331,-8.956686 38,0 z"
       id="path2"
       inkscape:connector-curvature="0"
       style="fill:currentColor"
       sodipodi:nodetypes="sssccsssscssssssccsssssssssssssscccsssssssssssssss" />
  </g>
</svg>
