<?xml version="1.0" encoding="UTF-8" standalone="no"?>
<svg
   xmlns:dc="http://purl.org/dc/elements/1.1/"
   xmlns:cc="http://creativecommons.org/ns#"
   xmlns:rdf="http://www.w3.org/1999/02/22-rdf-syntax-ns#"
   xmlns:svg="http://www.w3.org/2000/svg"
   xmlns="http://www.w3.org/2000/svg"
   xmlns:sodipodi="http://sodipodi.sourceforge.net/DTD/sodipodi-0.dtd"
   xmlns:inkscape="http://www.inkscape.org/namespaces/inkscape"
   version="1.1"
   viewBox="0 -255 649 1000"
   id="svg6"
   sodipodi:docname="nn.svg"
   inkscape:version="0.92.2 5c3e80d, 2017-08-06">
  <metadata
     id="metadata12">
    <rdf:RDF>
      <cc:Work
         rdf:about="">
        <dc:format>image/svg+xml</dc:format>
        <dc:type
           rdf:resource="http://purl.org/dc/dcmitype/StillImage" />
        <dc:title></dc:title>
      </cc:Work>
    </rdf:RDF>
  </metadata>
  <defs
     id="defs10" />
  <sodipodi:namedview
     pagecolor="#ffffff"
     bordercolor="#666666"
     borderopacity="1"
     objecttolerance="10"
     gridtolerance="10"
     guidetolerance="10"
     inkscape:pageopacity="0"
     inkscape:pageshadow="2"
     inkscape:window-width="945"
     inkscape:window-height="621"
     id="namedview8"
     showgrid="false"
     inkscape:zoom="0.41115625"
     inkscape:cx="262.26049"
     inkscape:cy="417.38612"
     inkscape:window-x="0"
     inkscape:window-y="0"
     inkscape:window-maximized="0"
     inkscape:current-layer="svg6" />
  <g
     transform="matrix(1 0 0 -1 0 800)"
     id="g4">
    <path
       d="M 646,62 C 646,42.666667 643.66667,28.666667 639,20 631.66667,6.6666667 617.33333,0 596,0 H 423 c -22.66667,0 -38.16667,4.5 -46.5,13.5 -8.33333,9 -12.5,25.833333 -12.5,50.5 0,0 48.74605,224.77147 0,310 -6.4542,11.28465 -29.80761,9.19239 -39,0 C 236.84735,285.84735 325,0 325,0 H 199 c 0,0 88.15265,285.84735 0,374 -8.95669,8.95669 -29.04331,8.95669 -38,0 C 72.847355,285.84735 161,0 161,0 H 38 v 408 c 0,19.33333 4,34.83333 12,46.5 8,11.66667 22,17.5 42,17.5 h 99 c 17.33333,0 30.33333,-4.66667 39,-14 5.33333,-6 10,-17 14,-33 4.66667,14.66667 9.66667,25 15,31 10,10.66667 22.33333,16 37,16 0,0 51.97225,-16.02775 68,0 55.62573,55.62573 0,236 0,236 h 124 c 0,0 -55.62573,-180.37427 0,-236 22.62742,-22.62742 96,0 96,0 41.33333,0 62,-22.33333 62,-67 z M 473,-255 H 359 c 0,0 38.65517,125.34483 0,164 -8.72098,8.720984 -28.27902,8.720984 -37,0 -38.65517,-38.65517 0,-164 0,-164 H 208 v 180 c 0,15.333333 5.5,28.5 16.5,39.5 11,11 24.5,16.5 40.5,16.5 h 151 c 15.33333,0 28.66667,-5.333333 40,-16 11.33333,-10.666667 17,-24 17,-40 z m 50,352 c 57.99303,87.17902 65.28953,192.25315 0,277 -7.12012,9.24203 -28.97085,9.98802 -35,0 -55.56087,-92.04335 -48.26437,-192.25315 0,-277 5.77364,-10.137862 28.53824,-9.713745 35,0 z"
       id="path2"
       inkscape:connector-curvature="0"
       style="fill:currentColor"
       sodipodi:nodetypes="scssssssccssccsssscccssccssssccssccsssssscsssss" />
  </g>
</svg>
