<?xml version="1.0" encoding="UTF-8" standalone="no"?>
<svg
   xmlns:dc="http://purl.org/dc/elements/1.1/"
   xmlns:cc="http://creativecommons.org/ns#"
   xmlns:rdf="http://www.w3.org/1999/02/22-rdf-syntax-ns#"
   xmlns:svg="http://www.w3.org/2000/svg"
   xmlns="http://www.w3.org/2000/svg"
   xmlns:sodipodi="http://sodipodi.sourceforge.net/DTD/sodipodi-0.dtd"
   xmlns:inkscape="http://www.inkscape.org/namespaces/inkscape"
   version="1.1"
   viewBox="0 -200 813 1000"
   id="svg6"
   sodipodi:docname="Nna.svg"
   inkscape:version="0.92.2 5c3e80d, 2017-08-06">
  <metadata
     id="metadata12">
    <rdf:RDF>
      <cc:Work
         rdf:about="">
        <dc:format>image/svg+xml</dc:format>
        <dc:type
           rdf:resource="http://purl.org/dc/dcmitype/StillImage" />
        <dc:title></dc:title>
      </cc:Work>
    </rdf:RDF>
  </metadata>
  <defs
     id="defs10" />
  <sodipodi:namedview
     pagecolor="#ffffff"
     bordercolor="#666666"
     borderopacity="1"
     objecttolerance="10"
     gridtolerance="10"
     guidetolerance="10"
     inkscape:pageopacity="0"
     inkscape:pageshadow="2"
     inkscape:window-width="640"
     inkscape:window-height="480"
     id="namedview8"
     showgrid="false"
     inkscape:zoom="0.28117187"
     inkscape:cx="344.26049"
     inkscape:cy="500"
     inkscape:window-x="0"
     inkscape:window-y="0"
     inkscape:window-maximized="0"
     inkscape:current-layer="svg6" />
  <g
     transform="matrix(1 0 0 -1 0 800)"
     id="g4">
    <path
       d="M 810,0 H 686 c 0,0 87.91694,285.08306 0,373 -8.95669,8.95669 -29.04331,8.95669 -38,0 C 560.08306,285.08306 648,0 648,0 H 524 c 0,0 87.91694,285.08306 0,373 -8.95669,8.95669 -29.04331,8.95669 -38,0 C 398.08306,285.08306 486,0 486,0 H 361 c 0,0 87.91694,285.08306 0,373 -47.14045,47.14045 -152.85955,47.14045 -200,0 -5.65685,-5.65685 -5.65685,-18.34315 0,-24 26.39865,-26.39865 112,0 112,0 15.33333,0 27.66667,-5 37,-15 9.33333,-10 14,-22.66667 14,-38 V 62 C 324,20.666667 304.33333,0 265,0 H 98 C 78.666667,0 63.666667,6 53,18 42.333333,30 37,46.666667 37,68 v 333 c 0,20.66667 6,37.66667 18,51 12,13.33333 28.333333,20 49,20 h 272 c 20.66667,0 36,-6.66667 46,-20 3.33333,-4 6.33333,-10.66667 9,-20 2,9.33333 4,16 6,20 8,13.33333 21,20 39,20 h 68 c 22,0 37,-6.66667 45,-20 2,-4 3.66667,-10.66667 5,-20 2,9.33333 4.33333,16 7,20 8.66667,13.33333 22.33333,20 41,20 h 102 c 22.66667,0 39.33333,-6.16667 50,-18.5 10.66667,-12.33333 16,-28.16667 16,-47.5 z M 199,97 c 38.65517,38.65517 38.65517,125.34483 0,164 -8.95669,8.95669 -29.04331,8.95669 -38,0 -38.65517,-38.65517 -38.65517,-125.34483 0,-164 8.95669,-8.956686 29.04331,-8.956686 38,0 z"
       id="path2"
       inkscape:connector-curvature="0"
       style="fill:currentColor"
       sodipodi:nodetypes="ccssccssccssssssssssssssscccsscccsssscsssss" />
  </g>
</svg>
