<?xml version="1.0" encoding="UTF-8" standalone="no"?>
<svg
   xmlns:dc="http://purl.org/dc/elements/1.1/"
   xmlns:cc="http://creativecommons.org/ns#"
   xmlns:rdf="http://www.w3.org/1999/02/22-rdf-syntax-ns#"
   xmlns:svg="http://www.w3.org/2000/svg"
   xmlns="http://www.w3.org/2000/svg"
   xmlns:sodipodi="http://sodipodi.sourceforge.net/DTD/sodipodi-0.dtd"
   xmlns:inkscape="http://www.inkscape.org/namespaces/inkscape"
   version="1.1"
   viewBox="0 -200 543 1000"
   id="svg6"
   sodipodi:docname="O.svg"
   inkscape:version="0.92.2 5c3e80d, 2017-08-06">
  <metadata
     id="metadata12">
    <rdf:RDF>
      <cc:Work
         rdf:about="">
        <dc:format>image/svg+xml</dc:format>
        <dc:type
           rdf:resource="http://purl.org/dc/dcmitype/StillImage" />
        <dc:title></dc:title>
      </cc:Work>
    </rdf:RDF>
  </metadata>
  <defs
     id="defs10" />
  <sodipodi:namedview
     pagecolor="#ffffff"
     bordercolor="#666666"
     borderopacity="1"
     objecttolerance="10"
     gridtolerance="10"
     guidetolerance="10"
     inkscape:pageopacity="0"
     inkscape:pageshadow="2"
     inkscape:window-width="640"
     inkscape:window-height="480"
     id="namedview8"
     showgrid="false"
     inkscape:zoom="0.28117187"
     inkscape:cx="209.26049"
     inkscape:cy="500"
     inkscape:window-x="0"
     inkscape:window-y="0"
     inkscape:window-maximized="0"
     inkscape:current-layer="svg6" />
  <g
     transform="matrix(1 0 0 -1 0 800)"
     id="g4">
    <path
       d="M 542,64 C 542,43.333333 537.16667,27.5 527.5,16.5 517.83333,5.5 503,0 483,0 H 360 v 97 c 0,0 43.56497,-13.435029 57,0 18.85618,18.85618 18.85618,61.14382 0,80 -13.43503,13.43503 -57,0 -57,0 v 109 c 0,0 43.56497,-13.43503 57,0 20.5061,20.5061 20.5061,66.4939 0,87 -60.57548,60.57548 -196.42452,60.57548 -257,0 -5.65685,-5.65685 -5.65685,-18.34315 0,-24 26.39865,-26.39865 112,0 112,0 15.33333,0 27.66667,-5 37,-15 9.33333,-10 14,-22.66667 14,-38 V 72 C 323,24 301,0 257,0 H 101 C 80.333333,0 64.333333,7.3333333 53,22 41.666667,36.666667 36,55 36,77 v 322 c 0,21.33333 6.166667,38.83333 18.5,52.5 C 66.833333,465.16667 83,472 103,472 h 373 c 19.33333,0 35.16667,-6.5 47.5,-19.5 C 535.83333,439.5 542,423 542,403 V 294 c 0,-19.33333 -6.33333,-34.66667 -19,-46 -4,-3.33333 -10.66667,-7.33333 -20,-12 8.66667,-3.33333 15,-7 19,-11 13.33333,-12.66667 20,-29.33333 20,-50 z M 198,97 c 38.65517,38.65517 38.65517,125.34483 0,164 -8.95669,8.95669 -29.04331,8.95669 -38,0 -38.65517,-38.65517 -38.65517,-125.34483 0,-164 8.95669,-8.956686 29.04331,-8.956686 38,0 z"
       id="path2"
       inkscape:connector-curvature="0"
       style="fill:currentColor"
       sodipodi:nodetypes="sssccssccssssssssssssssssssscccsssssss" />
  </g>
</svg>
