<?xml version="1.0" encoding="UTF-8" standalone="no"?>
<svg
   xmlns:dc="http://purl.org/dc/elements/1.1/"
   xmlns:cc="http://creativecommons.org/ns#"
   xmlns:rdf="http://www.w3.org/1999/02/22-rdf-syntax-ns#"
   xmlns:svg="http://www.w3.org/2000/svg"
   xmlns="http://www.w3.org/2000/svg"
   xmlns:sodipodi="http://sodipodi.sourceforge.net/DTD/sodipodi-0.dtd"
   xmlns:inkscape="http://www.inkscape.org/namespaces/inkscape"
   version="1.1"
   viewBox="0 -200 408 1000"
   id="svg6"
   sodipodi:docname="pha.svg"
   inkscape:version="0.92.2 5c3e80d, 2017-08-06">
  <metadata
     id="metadata12">
    <rdf:RDF>
      <cc:Work
         rdf:about="">
        <dc:format>image/svg+xml</dc:format>
        <dc:type
           rdf:resource="http://purl.org/dc/dcmitype/StillImage" />
        <dc:title></dc:title>
      </cc:Work>
    </rdf:RDF>
  </metadata>
  <defs
     id="defs10" />
  <sodipodi:namedview
     pagecolor="#ffffff"
     bordercolor="#666666"
     borderopacity="1"
     objecttolerance="10"
     gridtolerance="10"
     guidetolerance="10"
     inkscape:pageopacity="0"
     inkscape:pageshadow="2"
     inkscape:window-width="640"
     inkscape:window-height="480"
     id="namedview8"
     showgrid="false"
     inkscape:zoom="0.28117187"
     inkscape:cx="141.76049"
     inkscape:cy="500"
     inkscape:window-x="0"
     inkscape:window-y="0"
     inkscape:window-maximized="0"
     inkscape:current-layer="svg6" />
  <g
     transform="matrix(1 0 0 -1 0 800)"
     id="g4">
    <path
       d="M 406,42 C 406,30 401.33333,20 392,12 382.66667,4 372,0 360,0 H 200 v 97 c 0,0 61.90812,-19.091883 81,0 9.42809,9.42809 9.42809,30.57191 0,40 -10.1352,10.1352 -43,0 -43,0 -10.66667,0 -19.66667,3.66667 -27,11 -7.33333,7.33333 -11,16.33333 -11,27 v 128 c 0,9.33333 3,17.66667 9,25 6,7.33333 13.66667,11 23,11 0,0 37.45059,-11.54941 49,0 8.01388,8.01388 8.01388,25.98612 0,34 -28.28427,28.28427 -91.71573,28.28427 -120,0 C 73.083057,285.08306 161,0 161,0 H 38 v 394 c 0,22.66667 5.666667,40.66667 17,54 14,16 35.333333,24 64,24 h 227 c 40,0 60,-19 60,-57 v -95 c 0,-13.33333 -4.16667,-23.83333 -12.5,-31.5 -8.33333,-7.66667 -19.16667,-11.5 -32.5,-11.5 0,0 -44.32927,13.67073 -58,0 -18.62048,-18.62048 -18.62048,-60.37952 0,-79 14.84924,-14.84924 63,0 63,0 12.66667,0 22.5,-4.16667 29.5,-12.5 7,-8.33333 10.5,-17.5 10.5,-27.5 z"
       id="path2"
       inkscape:connector-curvature="0"
       style="fill:currentColor"
       sodipodi:nodetypes="sssccsssssssssssccscssssssssssss" />
  </g>
</svg>
