<?xml version="1.0" encoding="UTF-8" standalone="no"?>
<svg
   xmlns:dc="http://purl.org/dc/elements/1.1/"
   xmlns:cc="http://creativecommons.org/ns#"
   xmlns:rdf="http://www.w3.org/1999/02/22-rdf-syntax-ns#"
   xmlns:svg="http://www.w3.org/2000/svg"
   xmlns="http://www.w3.org/2000/svg"
   xmlns:sodipodi="http://sodipodi.sourceforge.net/DTD/sodipodi-0.dtd"
   xmlns:inkscape="http://www.inkscape.org/namespaces/inkscape"
   version="1.1"
   viewBox="0 -200 677 1000"
   id="svg6"
   sodipodi:docname="phha.svg"
   inkscape:version="0.92.2 5c3e80d, 2017-08-06">
  <metadata
     id="metadata12">
    <rdf:RDF>
      <cc:Work
         rdf:about="">
        <dc:format>image/svg+xml</dc:format>
        <dc:type
           rdf:resource="http://purl.org/dc/dcmitype/StillImage" />
        <dc:title></dc:title>
      </cc:Work>
    </rdf:RDF>
  </metadata>
  <defs
     id="defs10" />
  <sodipodi:namedview
     pagecolor="#ffffff"
     bordercolor="#666666"
     borderopacity="1"
     objecttolerance="10"
     gridtolerance="10"
     guidetolerance="10"
     inkscape:pageopacity="0"
     inkscape:pageshadow="2"
     inkscape:window-width="640"
     inkscape:window-height="480"
     id="namedview8"
     showgrid="false"
     inkscape:zoom="0.28117187"
     inkscape:cx="276.26049"
     inkscape:cy="500"
     inkscape:window-x="0"
     inkscape:window-y="0"
     inkscape:window-maximized="0"
     inkscape:current-layer="svg6" />
  <g
     transform="matrix(1 0 0 -1 0 800)"
     id="g4">
    <path
       d="M 675,0 H 191 v 97 h 8 c 0,0 22.15601,71.84399 0,94 -8.95669,8.95669 -29.04331,8.95669 -38,0 C 115.98087,145.98087 161,0 161,0 H 37 v 224 c 0,18.66667 3.666667,32.33333 11,41 10,11.33333 27.666667,17 53,17 h 160 c 22,0 38,-4.66667 48,-14 10,-9.33333 15,-24.66667 15,-46 0,0 -29.46278,-95.53722 0,-125 15.55635,-15.556349 50.44365,-15.556349 66,0 72.12489,72.12489 0,306 0,306 0,21.33333 4.83333,38.16667 14.5,50.5 9.66667,12.33333 23.16667,18.5 40.5,18.5 h 175 c 36.66667,0 55,-22.33333 55,-67 z M 552,97 c 65.05382,65.05382 65.05382,210.94618 0,276 -8.95669,8.95669 -29.04331,8.95669 -38,0 -65.05382,-65.05382 -65.05382,-210.94618 0,-276 8.95669,-8.956686 29.04331,-8.956686 38,0 z"
       id="path2"
       inkscape:connector-curvature="0"
       style="fill:currentColor"
       sodipodi:nodetypes="ccccssccscssssssssssscsssss" />
  </g>
</svg>
