<?xml version="1.0" encoding="UTF-8" standalone="no"?>
<svg
   xmlns:dc="http://purl.org/dc/elements/1.1/"
   xmlns:cc="http://creativecommons.org/ns#"
   xmlns:rdf="http://www.w3.org/1999/02/22-rdf-syntax-ns#"
   xmlns:svg="http://www.w3.org/2000/svg"
   xmlns="http://www.w3.org/2000/svg"
   xmlns:sodipodi="http://sodipodi.sourceforge.net/DTD/sodipodi-0.dtd"
   xmlns:inkscape="http://www.inkscape.org/namespaces/inkscape"
   version="1.1"
   viewBox="0 -200 657 1000"
   id="svg6"
   sodipodi:docname="rhu.svg"
   inkscape:version="0.92.2 5c3e80d, 2017-08-06">
  <metadata
     id="metadata12">
    <rdf:RDF>
      <cc:Work
         rdf:about="">
        <dc:format>image/svg+xml</dc:format>
        <dc:type
           rdf:resource="http://purl.org/dc/dcmitype/StillImage" />
        <dc:title></dc:title>
      </cc:Work>
    </rdf:RDF>
  </metadata>
  <defs
     id="defs10" />
  <sodipodi:namedview
     pagecolor="#ffffff"
     bordercolor="#666666"
     borderopacity="1"
     objecttolerance="10"
     gridtolerance="10"
     guidetolerance="10"
     inkscape:pageopacity="0"
     inkscape:pageshadow="2"
     inkscape:window-width="872"
     inkscape:window-height="623"
     id="namedview8"
     showgrid="false"
     inkscape:zoom="0.413"
     inkscape:cx="266.26049"
     inkscape:cy="500"
     inkscape:window-x="0"
     inkscape:window-y="0"
     inkscape:window-maximized="0"
     inkscape:current-layer="svg6" />
  <g
     transform="matrix(1 0 0 -1 0 800)"
     id="g4">
    <path
       d="m 654,258 c 0,-14.66667 -4,-25.66667 -12,-33 -4.66667,-4.66667 -13.66667,-8.33333 -27,-11 H 571 V 64 C 571,44.666667 567.66667,30 561,20 551.66667,6.6666667 536.33333,0 515,0 H 175 C 138.33333,0 120,21.333333 120,64 V 214 H 79 c -18.666667,0 -31.333333,7 -38,21 -3.333333,6.66667 -5,16 -5,28 v 144 c 0,23.33333 3.833333,40 11.5,50 7.666667,10 20.166667,15 37.5,15 h 195 c 19.33333,0 32.66667,-8 40,-24 4.66667,-10.66667 7,-24.66667 7,-42 0,0 -22.86312,-74.13688 0,-97 10.1352,-10.1352 32.8648,-10.1352 43,0 23.09882,23.09882 0,98 0,98 0,18.66667 2.66667,33 8,43 8,14.66667 22,22 42,22 h 160 c 24,0 40.66667,-2.33333 50,-7 16,-8 24,-24.66667 24,-50 z m -123,51 c 23.80593,23.80593 23.80593,77.19407 0,101 -8.95669,8.95669 -29.04331,8.95669 -38,0 -23.80593,-23.80593 -23.80593,-77.19407 0,-101 8.95669,-8.95669 29.04331,-8.95669 38,0 z m -330,0 c 23.80593,23.80593 23.80593,77.19407 0,101 -8.95669,8.95669 -29.04331,8.95669 -38,0 -23.80593,-23.80593 -23.80593,-77.19407 0,-101 8.95669,-8.95669 29.04331,-8.95669 38,0 z M 444,98 c 28.75568,28.75568 28.75568,93.24432 0,122 -47.14045,47.14045 -152.85955,47.14045 -200,0 -28.75568,-28.75568 -28.75568,-93.24432 0,-122 47.14045,-47.140452 152.85955,-47.140452 200,0 z"
       id="path2"
       inkscape:connector-curvature="0"
       style="fill:currentColor"
       sodipodi:nodetypes="scccscssscscssssscsssscssssssssssssssssssss" />
  </g>
</svg>
