<?xml version="1.0" encoding="UTF-8" standalone="no"?>
<svg
   xmlns:dc="http://purl.org/dc/elements/1.1/"
   xmlns:cc="http://creativecommons.org/ns#"
   xmlns:rdf="http://www.w3.org/1999/02/22-rdf-syntax-ns#"
   xmlns:svg="http://www.w3.org/2000/svg"
   xmlns="http://www.w3.org/2000/svg"
   xmlns:sodipodi="http://sodipodi.sourceforge.net/DTD/sodipodi-0.dtd"
   xmlns:inkscape="http://www.inkscape.org/namespaces/inkscape"
   version="1.1"
   viewBox="0 -200 657 1000"
   id="svg6"
   sodipodi:docname="sa.svg"
   inkscape:version="0.92.2 5c3e80d, 2017-08-06">
  <metadata
     id="metadata12">
    <rdf:RDF>
      <cc:Work
         rdf:about="">
        <dc:format>image/svg+xml</dc:format>
        <dc:type
           rdf:resource="http://purl.org/dc/dcmitype/StillImage" />
        <dc:title></dc:title>
      </cc:Work>
    </rdf:RDF>
  </metadata>
  <defs
     id="defs10" />
  <sodipodi:namedview
     pagecolor="#ffffff"
     bordercolor="#666666"
     borderopacity="1"
     objecttolerance="10"
     gridtolerance="10"
     guidetolerance="10"
     inkscape:pageopacity="0"
     inkscape:pageshadow="2"
     inkscape:window-width="640"
     inkscape:window-height="480"
     id="namedview8"
     showgrid="false"
     inkscape:zoom="0.28117187"
     inkscape:cx="266.26049"
     inkscape:cy="500"
     inkscape:window-x="0"
     inkscape:window-y="0"
     inkscape:window-maximized="0"
     inkscape:current-layer="svg6" />
  <g
     transform="matrix(1 0 0 -1 0 800)"
     id="g4">
    <path
       d="M 652,62 C 652,42 646,26.666667 634,16 622,5.3333333 606.66667,0 588,0 H 427 C 404.33333,0 388.66667,5.8333333 380,17.5 371.33333,29.166667 367,45 367,65 c 0,0 72.5963,235.4037 0,308 -8.95669,8.95669 -29.04331,8.95669 -38,0 C 241.08306,285.08306 329,0 329,0 H 203 c 0,0 87.91694,285.08306 0,373 -8.95669,8.95669 -29.04331,8.95669 -38,0 C 77.083057,285.08306 165,0 165,0 H 39 v 406 c 0,19.33333 4.833333,35.16667 14.5,47.5 9.666667,12.33333 24.833333,18.5 45.5,18.5 h 133 c 19.33333,0 33.66667,-7.66667 43,-23 2.66667,-4.66667 5.66667,-12.66667 9,-24 2,10.66667 4.33333,18.33333 7,23 9.33333,16 25,24 47,24 h 99 c 18.66667,0 32.33333,-6 41,-18 8.66667,-12 13,-27.33333 13,-46 0,0 -73.3034,-237.6966 0,-311 8.72098,-8.720984 28.27902,-8.720984 37,0 88.38835,88.38835 0,375 0,375 h 124 z"
       id="path2"
       inkscape:connector-curvature="0"
       style="fill:currentColor"
       sodipodi:nodetypes="ssssssssccssccsssscccssssssccs" />
  </g>
</svg>
