<?xml version="1.0" encoding="UTF-8" standalone="no"?>
<svg
   xmlns:dc="http://purl.org/dc/elements/1.1/"
   xmlns:cc="http://creativecommons.org/ns#"
   xmlns:rdf="http://www.w3.org/1999/02/22-rdf-syntax-ns#"
   xmlns:svg="http://www.w3.org/2000/svg"
   xmlns="http://www.w3.org/2000/svg"
   xmlns:sodipodi="http://sodipodi.sourceforge.net/DTD/sodipodi-0.dtd"
   xmlns:inkscape="http://www.inkscape.org/namespaces/inkscape"
   version="1.1"
   viewBox="0 -200 651 1000"
   id="svg6"
   sodipodi:docname="shaa.svg"
   inkscape:version="0.92.2 5c3e80d, 2017-08-06">
  <metadata
     id="metadata12">
    <rdf:RDF>
      <cc:Work
         rdf:about="">
        <dc:format>image/svg+xml</dc:format>
        <dc:type
           rdf:resource="http://purl.org/dc/dcmitype/StillImage" />
        <dc:title></dc:title>
      </cc:Work>
    </rdf:RDF>
  </metadata>
  <defs
     id="defs10" />
  <sodipodi:namedview
     pagecolor="#ffffff"
     bordercolor="#666666"
     borderopacity="1"
     objecttolerance="10"
     gridtolerance="10"
     guidetolerance="10"
     inkscape:pageopacity="0"
     inkscape:pageshadow="2"
     inkscape:window-width="640"
     inkscape:window-height="480"
     id="namedview8"
     showgrid="false"
     inkscape:zoom="0.28117187"
     inkscape:cx="263.26049"
     inkscape:cy="500"
     inkscape:window-x="0"
     inkscape:window-y="0"
     inkscape:window-maximized="0"
     inkscape:current-layer="svg6" />
  <g
     transform="matrix(1 0 0 -1 0 800)"
     id="g4">
    <path
       d="M 646,70 C 646,48.666667 641.66667,31.666667 633,19 624.33333,6.3333333 609.66667,0 589,0 H 421 c -41.33333,0 -62,20.666667 -62,62 v 234 c 0,14.66667 4.83333,27.16667 14.5,37.5 9.66667,10.33333 22.5,15.5 38.5,15.5 0,0 84.07275,-25.92725 110,0 5.65685,5.65685 5.65685,18.34315 0,24 -46.90475,46.90475 -152.09525,46.90475 -199,0 C 250.168,300.168 323,64 323,64 323,42 316.83333,25.833333 304.5,15.5 292.16667,5.1666667 275.66667,0 255,0 H 104 C 82.666667,0 66,5 54,15 42,25 36,41.333333 36,64 v 408 h 124 c 0,0 -88.388348,-286.61165 0,-375 8.95669,-8.956686 29.04331,-8.956686 38,0 73.0677,73.0677 0,310 0,310 0,22 5.66667,38.33333 17,49 11.33333,10.66667 27.33333,16 48,16 h 322 c 40.66667,0 61,-21.66667 61,-65 z M 522,97 c 38.65517,38.65517 38.65517,125.34483 0,164 -8.95669,8.95669 -29.04331,8.95669 -38,0 -38.65517,-38.65517 -38.65517,-125.34483 0,-164 8.95669,-8.956686 29.04331,-8.956686 38,0 z"
       id="path2"
       inkscape:connector-curvature="0"
       style="fill:currentColor"
       sodipodi:nodetypes="sssssssssssssssssccsssssssssssss" />
  </g>
</svg>
