<?xml version="1.0" encoding="UTF-8" standalone="no"?>
<svg
   xmlns:dc="http://purl.org/dc/elements/1.1/"
   xmlns:cc="http://creativecommons.org/ns#"
   xmlns:rdf="http://www.w3.org/1999/02/22-rdf-syntax-ns#"
   xmlns:svg="http://www.w3.org/2000/svg"
   xmlns="http://www.w3.org/2000/svg"
   xmlns:sodipodi="http://sodipodi.sourceforge.net/DTD/sodipodi-0.dtd"
   xmlns:inkscape="http://www.inkscape.org/namespaces/inkscape"
   version="1.1"
   viewBox="0 -200 811 1000"
   id="svg6"
   sodipodi:docname="shhaa.svg"
   inkscape:version="0.92.2 5c3e80d, 2017-08-06">
  <metadata
     id="metadata12">
    <rdf:RDF>
      <cc:Work
         rdf:about="">
        <dc:format>image/svg+xml</dc:format>
        <dc:type
           rdf:resource="http://purl.org/dc/dcmitype/StillImage" />
        <dc:title></dc:title>
      </cc:Work>
    </rdf:RDF>
  </metadata>
  <defs
     id="defs10" />
  <sodipodi:namedview
     pagecolor="#ffffff"
     bordercolor="#666666"
     borderopacity="1"
     objecttolerance="10"
     gridtolerance="10"
     guidetolerance="10"
     inkscape:pageopacity="0"
     inkscape:pageshadow="2"
     inkscape:window-width="640"
     inkscape:window-height="480"
     id="namedview8"
     showgrid="false"
     inkscape:zoom="0.28117187"
     inkscape:cx="343.26049"
     inkscape:cy="500"
     inkscape:window-x="736"
     inkscape:window-y="329"
     inkscape:window-maximized="0"
     inkscape:current-layer="svg6" />
  <g
     transform="matrix(1 0 0 -1 0 800)"
     id="g4">
    <path
       d="M 808,0 H 191 v 97 c 0,0 6.11438,-1.885618 8,0 22.39171,22.39171 22.39171,72.60829 0,95 -8.95669,8.95669 -29.04331,8.95669 -38,0 C 115.74517,146.74517 161,0 161,0 H 37 v 224 c 0,18.66667 3.666667,32.33333 11,41 10,11.33333 27.666667,17 53,17 h 160 c 22,0 38,-4.66667 48,-14 10,-9.33333 15,-24.66667 15,-46 0,0 -29.46278,-95.53722 0,-125 30.40559,-30.405592 98.59441,-30.405592 129,0 15.79205,15.79205 0,67 0,67 h -36 c -20,0 -34,5.16667 -42,15.5 -8,10.33333 -12,25.16667 -12,44.5 v 184 c 0,18 5.16667,33.16667 15.5,45.5 10.33333,12.33333 23.83333,18.5 40.5,18.5 h 167 c 17.33333,0 31.83333,-6.5 43.5,-19.5 11.66667,-13 17.5,-28.83333 17.5,-47.5 0,0 -17.91337,-58.08663 0,-76 8.95669,-8.95669 29.04331,-8.95669 38,0 33.70542,33.70542 0,143 0,143 H 808 Z M 525,246 c 31.1127,31.1127 31.1127,100.8873 0,132 -8.95669,8.95669 -29.04331,8.95669 -38,0 -31.1127,-31.1127 -31.1127,-100.8873 0,-132 8.95669,-8.95669 29.04331,-8.95669 38,0 z M 685,97 c 34.17683,34.17683 34.17683,110.82317 0,145 -9.42809,9.42809 -30.57191,9.42809 -40,0 -8.01388,-8.01388 0,-34 0,-34 0,-15.33333 -3.83333,-26.5 -11.5,-33.5 -7.66667,-7 -17.16667,-10.5 -28.5,-10.5 h -41 c 0,0 -15.79205,-51.20795 0,-67 28.51997,-28.519974 92.48003,-28.519974 121,0 z"
       id="path2"
       inkscape:connector-curvature="0"
       style="fill:currentColor"
       sodipodi:nodetypes="cccsssccscsssssscssssssssssscccssssssssssscss" />
  </g>
</svg>
