<?xml version="1.0" encoding="UTF-8" standalone="no"?>
<svg
   xmlns:dc="http://purl.org/dc/elements/1.1/"
   xmlns:cc="http://creativecommons.org/ns#"
   xmlns:rdf="http://www.w3.org/1999/02/22-rdf-syntax-ns#"
   xmlns:svg="http://www.w3.org/2000/svg"
   xmlns="http://www.w3.org/2000/svg"
   xmlns:sodipodi="http://sodipodi.sourceforge.net/DTD/sodipodi-0.dtd"
   xmlns:inkscape="http://www.inkscape.org/namespaces/inkscape"
   version="1.1"
   viewBox="0 -200 326 1000"
   id="svg6"
   sodipodi:docname="ta.svg"
   inkscape:version="0.92.2 5c3e80d, 2017-08-06">
  <metadata
     id="metadata12">
    <rdf:RDF>
      <cc:Work
         rdf:about="">
        <dc:format>image/svg+xml</dc:format>
        <dc:type
           rdf:resource="http://purl.org/dc/dcmitype/StillImage" />
        <dc:title></dc:title>
      </cc:Work>
    </rdf:RDF>
  </metadata>
  <defs
     id="defs10" />
  <sodipodi:namedview
     pagecolor="#ffffff"
     bordercolor="#666666"
     borderopacity="1"
     objecttolerance="10"
     gridtolerance="10"
     guidetolerance="10"
     inkscape:pageopacity="0"
     inkscape:pageshadow="2"
     inkscape:window-width="640"
     inkscape:window-height="480"
     id="namedview8"
     showgrid="false"
     inkscape:zoom="0.28117187"
     inkscape:cx="100.76049"
     inkscape:cy="500"
     inkscape:window-x="0"
     inkscape:window-y="0"
     inkscape:window-maximized="0"
     inkscape:current-layer="svg6" />
  <g
     transform="matrix(1 0 0 -1 0 800)"
     id="g4">
    <path
       d="M 324,60 C 324,40 318.33333,25 307,15 295.66667,5 280.66667,0 262,0 H 95 C 77.666667,0 63.666667,5 53,15 42.333333,25 37,40 37,60 v 105 h 124 c 0,0 -24.51304,-79.486965 0,-104 8.95669,-8.956686 29.04331,-8.956686 38,0 34.17683,34.176828 34.17683,110.82317 0,145 -25.22014,25.22014 -107,0 -107,0 -36.666667,0 -55,21.33333 -55,64 v 138 c 0,42.66667 18.666667,64 56,64 h 177 c 36,0 54,-21.33333 54,-64 V 307 H 199 c 0,0 24.27733,78.72267 0,103 -8.95669,8.95669 -29.04331,8.95669 -38,0 -33.70542,-33.70542 -33.70542,-109.29458 0,-143 23.33452,-23.33452 99,0 99,0 24,0 40.66667,-4.66667 50,-14 9.33333,-9.33333 14,-23 14,-41 z"
       id="path2"
       inkscape:connector-curvature="0"
       style="fill:currentColor"
       sodipodi:nodetypes="ssssssccsssssssssccsssssss" />
  </g>
</svg>
