<?xml version="1.0" encoding="UTF-8" standalone="no"?>
<svg
   xmlns:dc="http://purl.org/dc/elements/1.1/"
   xmlns:cc="http://creativecommons.org/ns#"
   xmlns:rdf="http://www.w3.org/1999/02/22-rdf-syntax-ns#"
   xmlns:svg="http://www.w3.org/2000/svg"
   xmlns="http://www.w3.org/2000/svg"
   xmlns:sodipodi="http://sodipodi.sourceforge.net/DTD/sodipodi-0.dtd"
   xmlns:inkscape="http://www.inkscape.org/namespaces/inkscape"
   version="1.1"
   viewBox="0 -200 653 1000"
   id="svg6"
   sodipodi:docname="tha.svg"
   inkscape:version="0.92.2 5c3e80d, 2017-08-06">
  <metadata
     id="metadata12">
    <rdf:RDF>
      <cc:Work
         rdf:about="">
        <dc:format>image/svg+xml</dc:format>
        <dc:type
           rdf:resource="http://purl.org/dc/dcmitype/StillImage" />
        <dc:title></dc:title>
      </cc:Work>
    </rdf:RDF>
  </metadata>
  <defs
     id="defs10" />
  <sodipodi:namedview
     pagecolor="#ffffff"
     bordercolor="#666666"
     borderopacity="1"
     objecttolerance="10"
     gridtolerance="10"
     guidetolerance="10"
     inkscape:pageopacity="0"
     inkscape:pageshadow="2"
     inkscape:window-width="640"
     inkscape:window-height="480"
     id="namedview8"
     showgrid="false"
     inkscape:zoom="0.28117187"
     inkscape:cx="264.26049"
     inkscape:cy="500"
     inkscape:window-x="0"
     inkscape:window-y="0"
     inkscape:window-maximized="0"
     inkscape:current-layer="svg6" />
  <g
     transform="matrix(1 0 0 -1 0 800)"
     id="g4">
    <path
       d="M 650,1 H 526 c 0,0 87.68124,284.31876 0,372 -8.72098,8.72098 -28.27902,8.72098 -37,0 C 419.23213,303.23213 489,77 489,77 489,53.666667 484.66667,36 476,24 464.66667,8 445.33333,0 418,0 H 265 c -19.33333,0 -35.33333,6 -48,18 -12.66667,12 -19,28.666667 -19,50 0,0 71.88919,233.11081 0,305 -8.95669,8.95669 -29.04331,8.95669 -38,0 C 72.083057,285.08306 160,0 160,0 H 37 v 406 c 0,20 6.666667,36 20,48 13.333333,12 29.333333,18 48,18 h 481 c 22.66667,0 39,-6.83333 49,-20.5 10,-13.66667 15,-30.5 15,-50.5 z M 362,97 c 65.05382,65.05382 65.05382,210.94618 0,276 -8.72098,8.72098 -28.27902,8.72098 -37,0 -65.05382,-65.05382 -65.05382,-210.94618 0,-276 8.72098,-8.720984 28.27902,-8.720984 37,0 z"
       id="path2"
       inkscape:connector-curvature="0"
       style="fill:currentColor"
       sodipodi:nodetypes="ccssscssssssccsssssscsssss" />
  </g>
</svg>
