<?xml version="1.0" encoding="UTF-8" standalone="no"?>
<svg
   xmlns:dc="http://purl.org/dc/elements/1.1/"
   xmlns:cc="http://creativecommons.org/ns#"
   xmlns:rdf="http://www.w3.org/1999/02/22-rdf-syntax-ns#"
   xmlns:svg="http://www.w3.org/2000/svg"
   xmlns="http://www.w3.org/2000/svg"
   xmlns:sodipodi="http://sodipodi.sourceforge.net/DTD/sodipodi-0.dtd"
   xmlns:inkscape="http://www.inkscape.org/namespaces/inkscape"
   version="1.1"
   viewBox="0 -200 981 1000"
   id="svg6"
   sodipodi:docname="tscha.svg"
   inkscape:version="0.92.2 5c3e80d, 2017-08-06">
  <metadata
     id="metadata12">
    <rdf:RDF>
      <cc:Work
         rdf:about="">
        <dc:format>image/svg+xml</dc:format>
        <dc:type
           rdf:resource="http://purl.org/dc/dcmitype/StillImage" />
        <dc:title></dc:title>
      </cc:Work>
    </rdf:RDF>
  </metadata>
  <defs
     id="defs10" />
  <sodipodi:namedview
     pagecolor="#ffffff"
     bordercolor="#666666"
     borderopacity="1"
     objecttolerance="10"
     gridtolerance="10"
     guidetolerance="10"
     inkscape:pageopacity="0"
     inkscape:pageshadow="2"
     inkscape:window-width="640"
     inkscape:window-height="480"
     id="namedview8"
     showgrid="false"
     inkscape:zoom="0.28117187"
     inkscape:cx="428.26049"
     inkscape:cy="500"
     inkscape:window-x="0"
     inkscape:window-y="0"
     inkscape:window-maximized="0"
     inkscape:current-layer="svg6" />
  <g
     transform="matrix(1 0 0 -1 0 800)"
     id="g4">
    <path
       d="M 978,66 C 978,46 974,30.666667 966,20 956,6.6666667 940,0 918,0 h -95 c -18.66667,0 -33,7.6666667 -43,23 -2.66667,4.666667 -5.66667,12.333333 -9,23 C 769,35.333333 766.66667,27.666667 764,23 754.66667,7.6666667 739,0 717,0 H 580 c -18.66667,0 -32.33333,7.3333333 -41,22 -8.66667,14.666667 -13,30.333333 -13,47 0,0 71.65349,232.34651 0,304 -8.72098,8.72098 -28.27902,8.72098 -37,0 C 418.05362,302.05362 489,72 489,72 489,52.666667 485.33333,37 478,25 468,8.3333333 451.66667,0 429,0 H 265 c -19.33333,0 -35.33333,6 -48,18 -12.66667,12 -19,28.666667 -19,50 0,0 71.88919,233.11081 0,305 -8.95669,8.95669 -29.04331,8.95669 -38,0 C 72.083057,285.08306 160,0 160,0 H 37 v 409 c 0,20 6.166667,35.5 18.5,46.5 12.333333,11 27.5,16.5 45.5,16.5 h 489 c 22.66667,0 38.33333,-5.83333 47,-17.5 8.66667,-11.66667 13,-27.5 13,-47.5 0,0 -73.0677,-236.9323 0,-310 8.95669,-8.956686 29.04331,-8.956686 38,0 88.38835,88.38835 0,375 0,375 h 126 c 0,0 -88.38835,-286.61165 0,-375 8.95669,-8.956686 29.04331,-8.956686 38,0 88.38835,88.38835 0,375 0,375 H 978 Z M 362,97 c 65.05382,65.05382 65.05382,210.94618 0,276 -8.72098,8.72098 -28.27902,8.72098 -37,0 -65.05382,-65.05382 -65.05382,-210.94618 0,-276 8.72098,-8.720984 28.27902,-8.720984 37,0 z"
       id="path2"
       inkscape:connector-curvature="0"
       style="fill:currentColor"
       sodipodi:nodetypes="sssscccssssssscssssssccssssssssccssccssssss" />
  </g>
</svg>
