<?xml version="1.0" encoding="UTF-8" standalone="no"?>
<svg
   xmlns:dc="http://purl.org/dc/elements/1.1/"
   xmlns:cc="http://creativecommons.org/ns#"
   xmlns:rdf="http://www.w3.org/1999/02/22-rdf-syntax-ns#"
   xmlns:svg="http://www.w3.org/2000/svg"
   xmlns="http://www.w3.org/2000/svg"
   xmlns:sodipodi="http://sodipodi.sourceforge.net/DTD/sodipodi-0.dtd"
   xmlns:inkscape="http://www.inkscape.org/namespaces/inkscape"
   version="1.1"
   viewBox="0 -200 981 1000"
   id="svg6"
   sodipodi:docname="tssa.svg"
   inkscape:version="0.92.2 5c3e80d, 2017-08-06">
  <metadata
     id="metadata12">
    <rdf:RDF>
      <cc:Work
         rdf:about="">
        <dc:format>image/svg+xml</dc:format>
        <dc:type
           rdf:resource="http://purl.org/dc/dcmitype/StillImage" />
        <dc:title></dc:title>
      </cc:Work>
    </rdf:RDF>
  </metadata>
  <defs
     id="defs10" />
  <sodipodi:namedview
     pagecolor="#ffffff"
     bordercolor="#666666"
     borderopacity="1"
     objecttolerance="10"
     gridtolerance="10"
     guidetolerance="10"
     inkscape:pageopacity="0"
     inkscape:pageshadow="2"
     inkscape:window-width="957"
     inkscape:window-height="634"
     id="namedview8"
     showgrid="false"
     inkscape:zoom="0.42314063"
     inkscape:cx="428.26049"
     inkscape:cy="500"
     inkscape:window-x="0"
     inkscape:window-y="0"
     inkscape:window-maximized="0"
     inkscape:current-layer="svg6" />
  <g
     transform="matrix(1 0 0 -1 0 800)"
     id="g4">
    <path
       d="M 976,62 C 976,42 970,26.666667 958,16 946,5.3333333 930.66667,0 912,0 H 752 C 729.33333,0 713.66667,5.8333333 705,17.5 696.33333,29.166667 692,45 692,65 c 0,0 72.5963,235.4037 0,308 -8.95669,8.95669 -29.04331,8.95669 -38,0 C 566.08306,285.08306 654,0 654,0 H 527 c 0,0 87.91694,285.08306 0,373 -8.95669,8.95669 -29.04331,8.95669 -38,0 C 416.168,300.168 489,64 489,64 489,41.333333 485.66667,25.666667 479,17 470.33333,5.6666667 453.66667,0 429,0 H 265 c -19.33333,0 -35.33333,6 -48,18 -12.66667,12 -19,28.666667 -19,50 0,0 71.88919,233.11081 0,305 -8.95669,8.95669 -29.04331,8.95669 -38,0 C 72.083057,285.08306 160,0 160,0 H 37 v 409 c 0,20 6.166667,35.5 18.5,46.5 12.333333,11 27.5,16.5 45.5,16.5 h 456 c 22.66667,0 38.33333,-7 47,-21 2.66667,-4.66667 4.66667,-12 6,-22 1.33333,9.33333 3.33333,16.33333 6,21 8.66667,14.66667 24,22 46,22 h 99 c 19.33333,0 33.66667,-6.33333 43,-19 7.33333,-10 11,-25 11,-45 0,0 -73.3034,-237.6966 0,-311 8.95669,-8.956686 29.04331,-8.956686 38,0 88.38835,88.38835 0,375 0,375 H 976 Z M 362,97 c 65.05382,65.05382 65.05382,210.94618 0,276 -8.72098,8.72098 -28.27902,8.72098 -37,0 -65.05382,-65.05382 -65.05382,-210.94618 0,-276 8.72098,-8.720984 28.27902,-8.720984 37,0 z"
       id="path2"
       inkscape:connector-curvature="0"
       style="fill:currentColor"
       sodipodi:nodetypes="ssssssssccssscssssssccsssscccsscsssccssssss" />
  </g>
</svg>
