<?xml version="1.0" encoding="UTF-8" standalone="no"?>
<svg
   xmlns:dc="http://purl.org/dc/elements/1.1/"
   xmlns:cc="http://creativecommons.org/ns#"
   xmlns:rdf="http://www.w3.org/1999/02/22-rdf-syntax-ns#"
   xmlns:svg="http://www.w3.org/2000/svg"
   xmlns="http://www.w3.org/2000/svg"
   xmlns:sodipodi="http://sodipodi.sourceforge.net/DTD/sodipodi-0.dtd"
   xmlns:inkscape="http://www.inkscape.org/namespaces/inkscape"
   version="1.1"
   viewBox="0 -200 496 1000"
   id="svg6"
   sodipodi:docname="u.svg"
   inkscape:version="0.92.2 5c3e80d, 2017-08-06">
  <metadata
     id="metadata12">
    <rdf:RDF>
      <cc:Work
         rdf:about="">
        <dc:format>image/svg+xml</dc:format>
        <dc:type
           rdf:resource="http://purl.org/dc/dcmitype/StillImage" />
        <dc:title></dc:title>
      </cc:Work>
    </rdf:RDF>
  </metadata>
  <defs
     id="defs10" />
  <sodipodi:namedview
     pagecolor="#ffffff"
     bordercolor="#666666"
     borderopacity="1"
     objecttolerance="10"
     gridtolerance="10"
     guidetolerance="10"
     inkscape:pageopacity="0"
     inkscape:pageshadow="2"
     inkscape:window-width="876"
     inkscape:window-height="578"
     id="namedview8"
     showgrid="false"
     inkscape:zoom="0.37151562"
     inkscape:cx="185.76049"
     inkscape:cy="69.331707"
     inkscape:window-x="0"
     inkscape:window-y="0"
     inkscape:window-maximized="0"
     inkscape:current-layer="svg6" />
  <g
     transform="matrix(1 0 0 -1 0 800)"
     id="g4">
    <path
       d="m 494,60 c 0,-36 -6.66667,-60 -20,-72 -13.33333,-12 -33.66667,-18 -61,-18 0,0 -200.24601,61.753992 -262,0 -9.42809,-9.42809 -9.42809,-30.57191 0,-40 80.37447,-80.37447 341,0 341,0 V -175 H 108 c -21.333333,0 -37.666667,3.33333 -49,10 -15.333333,8.66667 -23,24 -23,46 V -2 C 36,17.333333 40.833333,32.833333 50.5,44.5 60.166667,56.166667 74,62 92,62 c 0,0 193.46565,-54.6661345 278,-1 63.62898,40.39448 73.53911,238.46089 0,312 -49.49747,49.49747 -160.50253,49.49747 -210,0 -5.65685,-5.65685 -5.65685,-18.34315 0,-24 24.74874,-24.74874 105,0 105,0 18.66667,0 33,-3.5 43,-10.5 10,-7 15,-20.83333 15,-41.5 V 167 151 c 0,-18 -3,-31.66667 -9,-41 C 304.66667,95.333333 287.33333,88 262,88 H 99 c -42,0 -63,26.66667 -63,80 v 207 c 0,36.66667 7.666667,62.66667 23,78 12.666667,12.66667 32,19 58,19 h 304 c 30.66667,0 51.66667,-11.66667 63,-35 6.66667,-13.33333 10,-30.66667 10,-52 z m -296,90 c 26.39865,26.39865 26.39865,85.60135 0,112 -8.95669,8.95669 -29.04331,8.95669 -38,0 -26.39865,-26.39865 -26.39865,-85.60135 0,-112 8.95669,-8.95669 29.04331,-8.95669 38,0 z"
       id="path2"
       inkscape:connector-curvature="0"
       style="fill:currentColor"
       sodipodi:nodetypes="sssssccscssscssssssscscssssssscsssssss" />
  </g>
</svg>
