<?xml version="1.0" encoding="UTF-8" standalone="no"?>
<svg
   xmlns:dc="http://purl.org/dc/elements/1.1/"
   xmlns:cc="http://creativecommons.org/ns#"
   xmlns:rdf="http://www.w3.org/1999/02/22-rdf-syntax-ns#"
   xmlns:svg="http://www.w3.org/2000/svg"
   xmlns="http://www.w3.org/2000/svg"
   xmlns:sodipodi="http://sodipodi.sourceforge.net/DTD/sodipodi-0.dtd"
   xmlns:inkscape="http://www.inkscape.org/namespaces/inkscape"
   version="1.1"
   viewBox="0 -200 483 1000"
   id="svg6"
   sodipodi:docname="va.svg"
   inkscape:version="0.92.2 5c3e80d, 2017-08-06">
  <metadata
     id="metadata12">
    <rdf:RDF>
      <cc:Work
         rdf:about="">
        <dc:format>image/svg+xml</dc:format>
        <dc:type
           rdf:resource="http://purl.org/dc/dcmitype/StillImage" />
        <dc:title></dc:title>
      </cc:Work>
    </rdf:RDF>
  </metadata>
  <defs
     id="defs10" />
  <sodipodi:namedview
     pagecolor="#ffffff"
     bordercolor="#666666"
     borderopacity="1"
     objecttolerance="10"
     gridtolerance="10"
     guidetolerance="10"
     inkscape:pageopacity="0"
     inkscape:pageshadow="2"
     inkscape:window-width="640"
     inkscape:window-height="480"
     id="namedview8"
     showgrid="false"
     inkscape:zoom="0.285"
     inkscape:cx="241.5"
     inkscape:cy="500"
     inkscape:window-x="0"
     inkscape:window-y="0"
     inkscape:window-maximized="0"
     inkscape:current-layer="svg6" />
  <g
     transform="matrix(1 0 0 -1 0 800)"
     id="g4">
    <path
       d="M 480,0 H 180 v 97 c 0,0 13.75736,-4.242641 18,0 65.76093,65.76093 65.76093,213.23907 0,279 -8.95669,8.95669 -29.04331,8.95669 -38,0 C 71.37595,287.37595 160,0 160,0 H 36 v 407 c 0,43.33333 20.333333,65 61,65 h 162 c 42,0 63,-21 63,-63 0,0 -73.53911,-238.46089 0,-312 8.72098,-8.720984 28.27902,-8.720984 37,0 88.38835,88.38835 0,375 0,375 h 121 z"
       id="path2"
       inkscape:connector-curvature="0"
       style="fill:currentColor"
       sodipodi:nodetypes="cccsssccssssssccc" />
  </g>
</svg>
