<?xml version="1.0" encoding="UTF-8" standalone="no"?>
<svg
   xmlns:dc="http://purl.org/dc/elements/1.1/"
   xmlns:cc="http://creativecommons.org/ns#"
   xmlns:rdf="http://www.w3.org/1999/02/22-rdf-syntax-ns#"
   xmlns:svg="http://www.w3.org/2000/svg"
   xmlns="http://www.w3.org/2000/svg"
   xmlns:sodipodi="http://sodipodi.sourceforge.net/DTD/sodipodi-0.dtd"
   xmlns:inkscape="http://www.inkscape.org/namespaces/inkscape"
   version="1.1"
   viewBox="0 -200 649 1000"
   id="svg6"
   sodipodi:docname="ya.svg"
   inkscape:version="0.92.2 5c3e80d, 2017-08-06">
  <metadata
     id="metadata12">
    <rdf:RDF>
      <cc:Work
         rdf:about="">
        <dc:format>image/svg+xml</dc:format>
        <dc:type
           rdf:resource="http://purl.org/dc/dcmitype/StillImage" />
        <dc:title></dc:title>
      </cc:Work>
    </rdf:RDF>
  </metadata>
  <defs
     id="defs10" />
  <sodipodi:namedview
     pagecolor="#ffffff"
     bordercolor="#666666"
     borderopacity="1"
     objecttolerance="10"
     gridtolerance="10"
     guidetolerance="10"
     inkscape:pageopacity="0"
     inkscape:pageshadow="2"
     inkscape:window-width="1052"
     inkscape:window-height="751"
     id="namedview8"
     showgrid="false"
     showguides="true"
     inkscape:guide-bbox="true"
     inkscape:zoom="0.556"
     inkscape:cx="324.5"
     inkscape:cy="500"
     inkscape:window-x="0"
     inkscape:window-y="0"
     inkscape:window-maximized="0"
     inkscape:current-layer="svg6" />
  <g
     transform="matrix(1 0 0 -1 0 800)"
     id="g4">
    <path
       d="M 647,63 C 647,44.333333 639.33333,29.166667 624,17.5 608.66667,5.8333333 590.66667,0 570,0 H 106 C 87.333333,0 71,6 57,18 43,30 36,45.333333 36,64 v 344 c 0,17.33333 4.5,32.33333 13.5,45 9,12.66667 21.166667,19 36.5,19 h 114 c 22,0 37.66667,-8 47,-24 2.66667,-5.33333 5,-13.33333 7,-24 0.66667,6.66667 1.66667,11.66667 3,15 8,22 24.33333,33 49,33 h 120 c 20.66667,0 35.66667,-6 45,-18 9.33333,-12 14,-27.33333 14,-46 0,0 -73.3034,-237.6966 0,-311 8.95669,-8.956686 29.04331,-8.956686 38,0 65.05382,65.05382 65.05382,210.94618 0,276 -4.71405,4.71405 -20,0 -20,0 v 99 h 91 c 19.33333,0 33,-5.83333 41,-17.5 8,-11.66667 12,-26.16667 12,-43.5 z M 360,97 c 65.05382,65.05382 65.05382,210.94618 0,276 -8.72098,8.72098 -28.27902,8.72098 -37,0 -65.05382,-65.05382 -65.05382,-210.94618 0,-276 8.72098,-8.720984 28.27902,-8.720984 37,0 z m -162,0 c 65.05382,65.05382 65.05382,210.94618 0,276 -8.95669,8.95669 -29.04331,8.95669 -38,0 -65.053824,-65.05382 -65.053824,-210.94618 0,-276 8.95669,-8.956686 29.04331,-8.956686 38,0 z"
       id="path2"
       inkscape:connector-curvature="0"
       style="fill:currentColor"
       sodipodi:nodetypes="sssssssssscccsssssssccssssssssssssss" />
  </g>
  <path
     style="opacity:1;fill:#ffffff;fill-opacity:1;fill-rule:evenodd;stroke:none;stroke-width:1.88976383;stroke-linecap:round;stroke-linejoin:miter;stroke-miterlimit:4;stroke-dasharray:none;stroke-dashoffset:0;stroke-opacity:1;paint-order:fill markers stroke"
     d="M 256.09766 968.38867 A 31.073446 32.956684 0 0 1 225.98828 1000.8281 L 225.98828 1000.8633 L 287.19531 1000.8633 A 31.073446 32.956684 0 0 1 256.13672 968.38867 L 256.09766 968.38867 z M 287.19531 1000.8633 L 291.90234 1000.8633 L 291.90234 1000.459 A 31.073446 32.956684 0 0 1 287.19531 1000.8633 z "
     transform="translate(0,-200)"
     id="rect19" />
</svg>
