<?xml version="1.0" encoding="UTF-8" standalone="no"?>
<svg
   xmlns:dc="http://purl.org/dc/elements/1.1/"
   xmlns:cc="http://creativecommons.org/ns#"
   xmlns:rdf="http://www.w3.org/1999/02/22-rdf-syntax-ns#"
   xmlns:svg="http://www.w3.org/2000/svg"
   xmlns="http://www.w3.org/2000/svg"
   xmlns:sodipodi="http://sodipodi.sourceforge.net/DTD/sodipodi-0.dtd"
   xmlns:inkscape="http://www.inkscape.org/namespaces/inkscape"
   version="1.1"
   viewBox="0 -200 487 1000"
   id="svg6"
   sodipodi:docname="zha.svg"
   inkscape:version="0.92.2 5c3e80d, 2017-08-06">
  <metadata
     id="metadata12">
    <rdf:RDF>
      <cc:Work
         rdf:about="">
        <dc:format>image/svg+xml</dc:format>
        <dc:type
           rdf:resource="http://purl.org/dc/dcmitype/StillImage" />
        <dc:title></dc:title>
      </cc:Work>
    </rdf:RDF>
  </metadata>
  <defs
     id="defs10" />
  <sodipodi:namedview
     pagecolor="#ffffff"
     bordercolor="#666666"
     borderopacity="1"
     objecttolerance="10"
     gridtolerance="10"
     guidetolerance="10"
     inkscape:pageopacity="0"
     inkscape:pageshadow="2"
     inkscape:window-width="640"
     inkscape:window-height="480"
     id="namedview8"
     showgrid="false"
     inkscape:zoom="0.28117187"
     inkscape:cx="181.26049"
     inkscape:cy="500"
     inkscape:window-x="305"
     inkscape:window-y="353"
     inkscape:window-maximized="0"
     inkscape:current-layer="svg6" />
  <g
     transform="matrix(1 0 0 -1 0 800)"
     id="g4">
    <path
       d="m 486,283 c 0,-24.66667 -7,-44.66667 -21,-60 -14,-15.33333 -33,-23 -57,-23 H 324 V 65 C 324,47.666667 317.83333,32.5 305.5,19.5 293.16667,6.5 278,0 260,0 H 95 C 77.666667,0 63.666667,6.3333333 53,19 42.333333,31.666667 37,47 37,65 v 91 h 124 c 0,0 -22.39171,-72.608285 0,-95 8.95669,-8.956686 29.04331,-8.956686 38,0 32.76261,32.762614 0,139 0,139 H 96 c -39.333333,0 -59,21.33333 -59,64 v 208 h 124 c 0,0 -45.25483,-146.74517 0,-192 8.95669,-8.95669 29.04331,-8.95669 38,0 29.69848,29.69848 0,126 0,126 0,21.33333 3.33333,36.66667 10,46 9.33333,13.33333 25.66667,20 49,20 h 173 c 20,0 34.66667,-6.66667 44,-20 7.33333,-10.66667 11,-26 11,-46 z m -125,-3 c 22.39171,22.39171 22.39171,72.60829 0,95 -8.72098,8.72098 -28.27902,8.72098 -37,0 -22.39171,-22.39171 -22.39171,-72.60829 0,-95 8.72098,-8.72098 28.27902,-8.72098 37,0 z"
       id="path2"
       inkscape:connector-curvature="0"
       style="fill:currentColor"
       sodipodi:nodetypes="ssscssssssccsscssccssscsscsssssss" />
  </g>
</svg>
